<svg width="500" height="486" viewBox="0 0 500 486" fill="none" xmlns="http://www.w3.org/2000/svg">
<path d="M500 371.691H0V371.934H500V371.691Z" fill="#FF4500"/>
<path d="M449.901 387.336H416.779V387.579H449.901V387.336Z" fill="#FF4500"/>
<path d="M331.22 389.974H322.527V390.217H331.22V389.974Z" fill="#FF4500"/>
<path d="M415.778 378.31H396.586V378.553H415.778V378.31Z" fill="#FF4500"/>
<path d="M95.652 379.943H52.459V380.186H95.652V379.943Z" fill="#FF4500"/>
<path d="M110.889 379.943H104.556V380.186H110.889V379.943Z" fill="#EBEBEB"/>
<path d="M225.147 384.048H131.471V384.291H225.147V384.048Z" fill="#FF4500"/>
<path d="M237.014 328.342H43.915C40.768 328.342 38.207 325.852 38.207 322.793V58.9615C38.207 55.9026 40.768 53.4133 43.915 53.4133H237.014C240.16 53.4133 242.721 55.9026 242.721 58.9615V322.793C242.721 325.852 240.16 328.342 237.014 328.342ZM43.915 53.6573C40.905 53.6573 38.457 56.0368 38.457 58.9625V322.794C38.457 325.72 40.905 328.1 43.915 328.1H237.014C240.023 328.1 242.471 325.72 242.471 322.794V58.9615C242.471 56.0368 240.023 53.6563 237.014 53.6563L43.915 53.6573Z" fill="#EBEBEB"/>
<path d="M453.31 328.342H260.212C257.065 328.342 254.505 325.852 254.505 322.793V58.9615C254.505 55.9026 257.066 53.4133 260.212 53.4133H453.31C456.458 53.4133 459.018 55.9026 459.018 58.9615V322.793C459.019 325.852 456.458 328.342 453.31 328.342ZM260.212 53.6573C257.203 53.6573 254.755 56.0368 254.755 58.9625V322.794C254.755 325.72 257.203 328.1 260.212 328.1H453.31C456.32 328.1 458.768 325.72 458.768 322.794V58.9615C458.768 56.0368 456.32 53.6563 453.31 53.6563L260.212 53.6573Z" fill="#EBEBEB"/>
<path d="M432.664 264.111C435.019 254.415 428.843 244.7 418.868 242.41C408.893 240.121 398.898 246.125 396.543 255.82C394.187 265.516 400.364 275.231 410.339 277.52C420.313 279.81 430.309 273.806 432.664 264.111Z" fill="#FF4500"/>
<path d="M414.597 275.254C423.302 275.254 430.359 268.395 430.359 259.933C430.359 251.472 423.302 244.613 414.597 244.613C405.892 244.613 398.835 251.472 398.835 259.933C398.835 268.395 405.892 275.254 414.597 275.254Z" fill="#FFD700"/>
<path d="M425.946 249.3C423.117 246.68 419.286 245.074 415.07 245.074C406.368 245.074 399.309 251.931 399.309 260.394C399.309 264.491 400.966 268.216 403.662 270.965C400.685 268.179 398.834 264.265 398.834 259.932C398.834 251.469 405.893 244.613 414.595 244.613C419.053 244.613 423.078 246.412 425.946 249.3Z" fill="#FFD700"/>
<path d="M414.596 241.895C404.347 241.895 396.039 249.97 396.039 259.932C396.039 269.894 404.347 277.97 414.596 277.97C424.845 277.97 433.153 269.894 433.153 259.932C433.154 249.97 424.846 241.895 414.596 241.895ZM414.596 276.987C404.907 276.987 397.055 269.35 397.055 259.932C397.055 250.515 404.907 242.882 414.596 242.882C424.285 242.882 432.137 250.515 432.137 259.932C432.138 269.351 424.285 276.987 414.596 276.987Z" fill="#FFD700"/>
<path d="M429.772 249.549C429.99 250.416 430.147 251.312 430.247 252.221C431.457 254.533 432.136 257.154 432.136 259.932C432.136 269.35 424.284 276.987 414.595 276.987C411.581 276.987 408.742 276.248 406.264 274.943C405.338 274.827 404.427 274.652 403.544 274.422C406.63 276.651 410.451 277.971 414.596 277.971C424.845 277.971 433.153 269.895 433.153 259.933C433.152 256.069 431.903 252.485 429.772 249.549Z" fill="#FFD700"/>
<path d="M423.69 259.274L423.212 260.591H426.14V261.946H422.734L421.041 266.71H418.272L416.539 261.946H412.674L410.921 266.71H408.152L406.459 261.946H403.053V260.591H405.981L405.523 259.274H403.053V257.918H405.045L403.352 253.155H406.021L407.694 257.918H411.698L413.431 253.155H415.901L417.594 257.918H421.598L423.311 253.155H425.861L424.168 257.918H426.14V259.274H423.69ZM408.65 260.591H410.722L411.2 259.274H408.172L408.65 260.591ZM410.224 261.946H409.128L409.666 263.476L410.224 261.946ZM416.04 260.591L415.562 259.274H413.65L413.172 260.591H416.04ZM414.148 257.919H415.064L414.606 256.66L414.148 257.919ZM421.12 259.274H418.072L418.55 260.591H420.642L421.12 259.274ZM420.144 261.946H419.029L419.587 263.515L420.144 261.946Z" fill="#FF4500"/>
<path d="M109.56 327.006C119.809 327.006 128.118 318.93 128.118 308.968C128.118 299.005 119.809 290.929 109.56 290.929C99.3107 290.929 91.002 299.005 91.002 308.968C91.002 318.93 99.3107 327.006 109.56 327.006Z" fill="#FF4500"/>
<path d="M109.561 324.288C118.266 324.288 125.323 317.429 125.323 308.968C125.323 300.506 118.266 293.647 109.561 293.647C100.856 293.647 93.799 300.506 93.799 308.968C93.799 317.429 100.856 324.288 109.561 324.288Z" fill="#FFD700"/>
<path d="M120.91 298.335C118.081 295.714 114.25 294.108 110.034 294.108C101.332 294.108 94.273 300.965 94.273 309.427C94.273 313.525 95.93 317.249 98.626 319.999C95.649 317.212 93.798 313.299 93.798 308.966C93.798 300.504 100.857 293.646 109.559 293.646C114.017 293.647 118.042 295.446 120.91 298.335Z" fill="#FFD700"/>
<path d="M109.56 290.93C99.3109 290.93 91.0029 299.006 91.0029 308.968C91.0029 318.93 99.3109 327.005 109.56 327.005C119.809 327.005 128.117 318.93 128.117 308.968C128.117 299.006 119.81 290.93 109.56 290.93ZM109.56 326.022C99.8709 326.022 92.0189 318.385 92.0189 308.968C92.0189 299.55 99.8709 291.918 109.56 291.918C119.249 291.918 127.101 299.55 127.101 308.968C127.101 318.385 119.249 326.022 109.56 326.022Z" fill="#FFD700"/>
<path d="M124.735 298.584C124.953 299.452 125.11 300.346 125.21 301.256C126.42 303.567 127.099 306.189 127.099 308.967C127.099 318.384 119.247 326.021 109.558 326.021C106.544 326.021 103.705 325.284 101.227 323.977C100.301 323.862 99.39 323.687 98.507 323.456C101.593 325.685 105.414 327.005 109.558 327.005C119.807 327.005 128.115 318.93 128.115 308.968C128.115 305.104 126.867 301.519 124.735 298.584Z" fill="#FFD700"/>
<path d="M116.184 306.915V308.251H102.937V306.915H111.642C112.1 306.663 112.399 306.353 112.399 305.927C112.399 304.901 111.522 304.088 109.391 304.088C108.116 304.088 106.742 304.359 105.427 304.959L104.83 302.984C106.204 302.326 107.818 301.977 109.312 301.977C112.878 301.977 114.969 303.642 114.969 306.043C114.969 306.372 114.929 306.662 114.85 306.914H116.184V306.915ZM102.937 309.587H116.184V310.923H107.658C107.08 311.214 106.702 311.562 106.702 312.085C106.702 313.092 107.599 313.847 109.77 313.847C111.543 313.847 113.355 313.324 114.471 312.569L115.188 314.525C113.654 315.416 111.702 315.957 109.83 315.957C106.204 315.957 104.133 314.331 104.133 311.91C104.133 311.523 104.213 311.213 104.332 310.922H102.937V309.587Z" fill="#FF4500"/>
<path d="M110.076 165.594C112.431 155.899 106.255 146.183 96.2801 143.894C86.3055 141.604 76.3102 147.608 73.9549 157.303C71.5996 166.999 77.7763 176.714 87.7509 179.004C97.7255 181.293 107.721 175.289 110.076 165.594Z" fill="#FF4500"/>
<path d="M92.02 176.757C100.725 176.757 107.782 169.898 107.782 161.437C107.782 152.975 100.725 146.116 92.02 146.116C83.3149 146.116 76.258 152.975 76.258 161.437C76.258 169.898 83.3149 176.757 92.02 176.757Z" fill="#FFD700"/>
<path d="M103.368 150.804C100.539 148.183 96.708 146.578 92.492 146.578C83.79 146.578 76.731 153.434 76.731 161.897C76.731 165.994 78.388 169.719 81.084 172.469C78.107 169.682 76.256 165.769 76.256 161.436C76.256 152.973 83.315 146.116 92.017 146.116C96.475 146.116 100.501 147.915 103.368 150.804Z" fill="#FFD700"/>
<path d="M92.019 143.399C81.77 143.399 73.462 151.475 73.462 161.437C73.462 171.399 81.77 179.474 92.019 179.474C102.268 179.474 110.576 171.399 110.576 161.437C110.576 151.474 102.269 143.399 92.019 143.399ZM92.019 178.491C82.33 178.491 74.478 170.854 74.478 161.437C74.478 152.019 82.33 144.387 92.019 144.387C101.708 144.387 109.56 152.019 109.56 161.437C109.56 170.854 101.708 178.491 92.019 178.491Z" fill="#FFD700"/>
<path d="M107.194 151.054C107.412 151.922 107.569 152.816 107.669 153.726C108.88 156.037 109.558 158.659 109.558 161.437C109.558 170.854 101.706 178.491 92.017 178.491C89.003 178.491 86.164 177.753 83.686 176.447C82.76 176.331 81.849 176.157 80.966 175.926C84.052 178.155 87.873 179.475 92.017 179.475C102.266 179.475 110.574 171.4 110.574 161.438C110.574 157.574 109.326 153.988 107.194 151.054Z" fill="#FFD700"/>
<path d="M90.515 156.77V160.894H97.248V163.024H90.515V164.843H94.897V166.198H90.515V168.212H87.925V166.198H85.933V164.843H87.925V154.659H98.104V156.769L90.515 156.77Z" fill="#FF4500"/>
<path d="M285.717 180.793C295.966 180.793 304.275 172.717 304.275 162.755C304.275 152.792 295.966 144.716 285.717 144.716C275.468 144.716 267.159 152.792 267.159 162.755C267.159 172.717 275.468 180.793 285.717 180.793Z" fill="#FF4500"/>
<path d="M285.717 178.075C294.422 178.075 301.479 171.216 301.479 162.755C301.479 154.293 294.422 147.434 285.717 147.434C277.012 147.434 269.955 154.293 269.955 162.755C269.955 171.216 277.012 178.075 285.717 178.075Z" fill="#FFD700"/>
<path d="M297.066 152.123C294.237 149.501 290.406 147.897 286.19 147.897C277.488 147.897 270.429 154.753 270.429 163.216C270.429 167.313 272.086 171.038 274.782 173.788C271.805 171.001 269.954 167.088 269.954 162.755C269.954 154.292 277.013 147.435 285.715 147.435C290.173 147.435 294.198 149.234 297.066 152.123Z" fill="#FFD700"/>
<path d="M285.717 144.717C275.468 144.717 267.16 152.793 267.16 162.755C267.16 172.717 275.467 180.792 285.717 180.792C295.966 180.792 304.274 172.717 304.274 162.755C304.274 152.793 295.966 144.717 285.717 144.717ZM285.717 179.809C276.028 179.809 268.176 172.172 268.176 162.755C268.176 153.337 276.028 145.705 285.717 145.705C295.406 145.705 303.258 153.337 303.258 162.755C303.258 172.173 295.406 179.809 285.717 179.809Z" fill="#FFD700"/>
<path d="M300.892 152.372C301.11 153.24 301.267 154.135 301.367 155.044C302.577 157.355 303.256 159.977 303.256 162.755C303.256 172.172 295.404 179.809 285.715 179.809C282.701 179.809 279.862 179.071 277.384 177.765C276.458 177.65 275.547 177.475 274.664 177.244C277.75 179.473 281.571 180.793 285.715 180.793C295.964 180.793 304.272 172.718 304.272 162.756C304.272 158.892 303.023 155.307 300.892 152.372Z" fill="#FFD700"/>
<path d="M284.073 169.531H281.224V164.613L279.132 165.697V164.264L281.224 163.199V161.863L279.132 162.929V161.515L281.224 160.432V155.978H283.774V159.134L288.854 156.52V157.953L283.774 160.547V161.884L288.854 159.289V160.703L283.774 163.316V167.421H284.63C288.056 167.421 289.73 165.659 289.73 162.657H292.3C292.32 166.937 289.531 169.531 284.073 169.531Z" fill="#FF4500"/>
<path d="M197.292 106.046C207.541 106.046 215.85 97.9701 215.85 88.0078C215.85 78.0455 207.541 69.9694 197.292 69.9694C187.043 69.9694 178.734 78.0455 178.734 88.0078C178.734 97.9701 187.043 106.046 197.292 106.046Z" fill="#FF4500"/>
<path d="M197.292 103.328C205.997 103.328 213.054 96.4692 213.054 88.0078C213.054 79.5465 205.997 72.6872 197.292 72.6872C188.587 72.6872 181.53 79.5465 181.53 88.0078C181.53 96.4692 188.587 103.328 197.292 103.328Z" fill="#FFD700"/>
<path d="M208.641 77.3751C205.812 74.7536 201.981 73.1479 197.765 73.1479C189.063 73.1479 182.004 80.0043 182.004 88.4675C182.004 92.5655 183.661 96.2892 186.357 99.039C183.38 96.2523 181.529 92.339 181.529 88.0059C181.529 79.5436 188.588 72.6862 197.29 72.6862C201.748 72.6871 205.774 74.4873 208.641 77.3751Z" fill="#FFD700"/>
<path d="M197.292 69.9704C187.043 69.9704 178.735 78.0458 178.735 88.0078C178.735 97.9699 187.043 106.045 197.292 106.045C207.541 106.045 215.849 97.9699 215.849 88.0078C215.849 78.0458 207.541 69.9704 197.292 69.9704ZM197.292 105.063C187.603 105.063 179.751 97.4255 179.751 88.0078C179.751 78.5901 187.603 70.958 197.292 70.958C206.981 70.958 214.833 78.5901 214.833 88.0078C214.833 97.4255 206.981 105.063 197.292 105.063Z" fill="#FFD700"/>
<path d="M212.467 77.6249C212.685 78.4929 212.842 79.3871 212.942 80.2969C214.152 82.6083 214.831 85.2298 214.831 88.0078C214.831 97.4255 206.979 105.063 197.29 105.063C194.276 105.063 191.437 104.324 188.959 103.018C188.033 102.903 187.122 102.728 186.239 102.497C189.325 104.726 193.146 106.046 197.29 106.046C207.539 106.046 215.847 97.9708 215.847 88.0088C215.847 84.1451 214.599 80.5594 212.467 77.6249Z" fill="#FFD700"/>
<path d="M203.637 82.586H200.51C200.948 82.9728 201.247 83.419 201.466 83.9225H203.637V85.2784H201.765C201.785 85.4135 201.785 85.5302 201.785 85.6653C201.785 87.7181 200.649 89.1509 198.697 89.8284L202.043 94.7856H199.254L196.206 90.2551H195.867H192.122V88.1254H195.708C198.178 88.1254 199.174 87.0212 199.174 85.5506V85.2794H190.947V83.9225H198.756C198.218 83.071 197.143 82.5665 195.529 82.586H190.948V81.231H203.637V82.586Z" fill="#FF4500"/>
<path d="M368.854 138.054C379.103 138.054 387.412 129.978 387.412 120.016C387.412 110.053 379.103 101.977 368.854 101.977C358.605 101.977 350.296 110.053 350.296 120.016C350.296 129.978 358.605 138.054 368.854 138.054Z" fill="#FF4500"/>
<path d="M368.855 135.336C377.56 135.336 384.617 128.477 384.617 120.016C384.617 111.554 377.56 104.695 368.855 104.695C360.15 104.695 353.093 111.554 353.093 120.016C353.093 128.477 360.15 135.336 368.855 135.336Z" fill="#FFD700"/>
<path d="M380.204 109.383C377.375 106.763 373.544 105.157 369.328 105.157C360.626 105.157 353.567 112.013 353.567 120.476C353.567 124.574 355.224 128.298 357.92 131.048C354.943 128.261 353.092 124.348 353.092 120.015C353.092 111.552 360.151 104.695 368.853 104.695C373.311 104.695 377.336 106.494 380.204 109.383Z" fill="#FFD700"/>
<path d="M368.854 101.977C358.605 101.977 350.297 110.053 350.297 120.015C350.297 129.977 358.605 138.052 368.854 138.052C379.103 138.052 387.411 129.977 387.411 120.015C387.411 110.053 379.104 101.977 368.854 101.977ZM368.854 137.07C359.165 137.07 351.313 129.432 351.313 120.015C351.313 110.597 359.165 102.965 368.854 102.965C378.543 102.965 386.395 110.597 386.395 120.015C386.395 129.432 378.543 137.07 368.854 137.07Z" fill="#FFD700"/>
<path d="M384.03 109.632C384.248 110.5 384.405 111.394 384.505 112.304C385.715 114.615 386.394 117.237 386.394 120.015C386.394 129.432 378.542 137.07 368.853 137.07C365.839 137.07 363 136.331 360.522 135.025C359.596 134.91 358.685 134.735 357.802 134.504C360.888 136.733 364.709 138.053 368.854 138.053C379.103 138.053 387.411 129.978 387.411 120.016C387.409 116.152 386.161 112.567 384.03 109.632Z" fill="#FFD700"/>
<path d="M370.328 120.809L375.547 126.792H372.519L367.28 120.809H366.702V126.792H364.152V120.809H362.16V119.221H364.152V113.238H366.702V119.221H367.28L372.519 113.238H375.547L370.328 119.221H374.033V120.809H370.328Z" fill="#FF4500"/>
<path d="M206.43 249.513C216.679 249.513 224.988 241.437 224.988 231.475C224.988 221.513 216.679 213.437 206.43 213.437C196.181 213.437 187.872 221.513 187.872 231.475C187.872 241.437 196.181 249.513 206.43 249.513Z" fill="#EBEBEB"/>
<path d="M206.431 246.796C215.136 246.796 222.193 239.936 222.193 231.475C222.193 223.014 215.136 216.154 206.431 216.154C197.726 216.154 190.669 223.014 190.669 231.475C190.669 239.936 197.726 246.796 206.431 246.796Z" fill="#E0E0E0"/>
<path d="M217.78 220.842C214.951 218.221 211.12 216.616 206.904 216.616C198.202 216.616 191.143 223.473 191.143 231.936C191.143 236.034 192.8 239.757 195.496 242.507C192.52 239.72 190.668 235.807 190.668 231.474C190.668 223.012 197.727 216.154 206.429 216.154C210.887 216.154 214.912 217.953 217.78 220.842Z" fill="#E0E0E0"/>
<path d="M206.43 213.438C196.181 213.438 187.873 221.513 187.873 231.475C187.873 241.437 196.181 249.512 206.43 249.512C216.679 249.512 224.987 241.437 224.987 231.475C224.987 221.512 216.68 213.438 206.43 213.438ZM206.43 248.53C196.741 248.53 188.889 240.893 188.889 231.475C188.889 222.057 196.741 214.425 206.43 214.425C216.119 214.425 223.971 222.057 223.971 231.475C223.971 240.893 216.12 248.53 206.43 248.53Z" fill="#E0E0E0"/>
<path d="M221.606 221.091C221.824 221.959 221.981 222.853 222.081 223.763C223.291 226.075 223.97 228.696 223.97 231.474C223.97 240.892 216.118 248.529 206.429 248.529C203.415 248.529 200.576 247.79 198.098 246.485C197.172 246.369 196.261 246.194 195.378 245.964C198.464 248.192 202.285 249.512 206.429 249.512C216.678 249.512 224.986 241.437 224.986 231.475C224.986 227.611 223.737 224.027 221.606 221.091Z" fill="#E0E0E0"/>
<path d="M212.616 230.816V232.133H214.708V233.488H212.616V238.252H210.484L202.815 229.094V238.252H200.245V233.488H198.153V232.133H200.245V230.816H198.153V229.46H200.245V224.697H202.376L210.045 233.875V224.697H212.615V229.46H214.707V230.816H212.616Z" fill="#EBEBEB"/>
<path d="M285.776 370.71C296.025 370.71 304.334 362.634 304.334 352.672C304.334 342.709 296.025 334.633 285.776 334.633C275.527 334.633 267.218 342.709 267.218 352.672C267.218 362.634 275.527 370.71 285.776 370.71Z" fill="#FF4500"/>
<path d="M285.777 367.992C294.482 367.992 301.539 361.133 301.539 352.672C301.539 344.21 294.482 337.351 285.777 337.351C277.072 337.351 270.015 344.21 270.015 352.672C270.015 361.133 277.072 367.992 285.777 367.992Z" fill="#FFD700"/>
<path d="M297.125 342.039C294.296 339.418 290.465 337.813 286.249 337.813C277.547 337.813 270.488 344.669 270.488 353.132C270.488 357.23 272.145 360.954 274.841 363.704C271.864 360.917 270.013 357.004 270.013 352.671C270.013 344.209 277.072 337.351 285.774 337.351C290.233 337.351 294.258 339.151 297.125 342.039Z" fill="#FFD700"/>
<path d="M285.776 334.634C275.527 334.634 267.219 342.71 267.219 352.672C267.219 362.634 275.527 370.709 285.776 370.709C296.025 370.709 304.333 362.634 304.333 352.672C304.333 342.71 296.026 334.634 285.776 334.634ZM285.776 369.727C276.087 369.727 268.235 362.089 268.235 352.672C268.235 343.254 276.087 335.622 285.776 335.622C295.465 335.622 303.317 343.254 303.317 352.672C303.317 362.089 295.465 369.727 285.776 369.727Z" fill="#FFD700"/>
<path d="M300.951 342.289C301.169 343.156 301.326 344.051 301.426 344.961C302.636 347.272 303.315 349.894 303.315 352.672C303.315 362.089 295.463 369.726 285.774 369.726C282.759 369.726 279.921 368.988 277.443 367.682C276.517 367.567 275.606 367.392 274.723 367.161C277.809 369.39 281.63 370.71 285.775 370.71C296.024 370.71 304.332 362.635 304.332 352.673C304.331 348.809 303.083 345.223 300.951 342.289Z" fill="#FFD700"/>
<path d="M290.597 355.828L292.27 357.376C291.095 358.713 289.382 359.487 287.35 359.622V361.771H285.717V359.583C281.972 359.157 279.283 356.388 279.283 352.67C279.283 348.952 281.972 346.184 285.717 345.757V343.569H287.35V345.718C289.382 345.854 291.095 346.628 292.27 347.964L290.597 349.494C289.701 348.546 288.605 348.023 287.35 347.925V357.413C288.605 357.319 289.701 356.796 290.597 355.828ZM285.717 357.319V348.025C283.446 348.47 281.892 350.271 281.892 352.672C281.892 355.073 283.446 356.874 285.717 357.319Z" fill="#FF4500"/>
<path d="M250 415.589C357.082 415.589 443.889 410.662 443.889 404.583C443.889 398.505 357.082 393.577 250 393.577C142.918 393.577 56.111 398.505 56.111 404.583C56.111 410.662 142.918 415.589 250 415.589Z" fill="#FF4500"/>
<path d="M90.017 360.171C90.017 360.171 82.264 351.201 77.302 355.385C72.34 359.568 74.85 368.441 80.573 368.727C86.296 369.013 90.018 365.923 90.018 365.923L90.017 360.171Z" fill="#00FF00"/>
<path opacity="0.2" d="M90.017 360.171C90.017 360.171 82.264 351.201 77.302 355.385C72.34 359.568 74.85 368.441 80.573 368.727C86.296 369.013 90.018 365.923 90.018 365.923L90.017 360.171Z" fill="white"/>
<path d="M121.65 337.422C121.65 337.422 128.163 330.792 132.194 331.916C136.226 333.04 135.806 348.882 123.301 342.468L121.65 337.422Z" fill="#00FF00"/>
<path opacity="0.3" d="M121.65 337.422C121.65 337.422 128.163 330.792 132.194 331.916C136.226 333.04 135.806 348.882 123.301 342.468L121.65 337.422Z" fill="white"/>
<path d="M98.391 386.89C98.391 386.89 76.993 358.436 94.359 352.671C111.725 346.906 114.827 375.564 109.865 383.541C104.903 391.521 98.391 386.89 98.391 386.89Z" fill="#00FF00"/>
<path d="M108.315 328.634C108.315 328.634 121.589 298.677 101.927 297.772C82.265 296.868 80.123 327.477 102.748 331.917L108.315 328.634Z" fill="#00FF00"/>
<path opacity="0.3" d="M98.391 386.89C98.391 386.89 76.993 358.436 94.359 352.671C111.725 346.906 114.827 375.564 109.865 383.541C104.903 391.521 98.391 386.89 98.391 386.89Z" fill="white"/>
<path opacity="0.3" d="M108.315 328.634C108.315 328.634 121.589 298.677 101.927 297.772C82.265 296.868 80.123 327.477 102.748 331.917L108.315 328.634Z" fill="white"/>
<path d="M103.605 353.163C103.605 353.163 97.15 326.712 109.555 324.601C121.96 322.491 134.205 346.391 108.545 358.406C108.545 358.406 104.143 355.751 103.605 353.163Z" fill="#00FF00"/>
<path opacity="0.2" d="M103.605 353.163C103.605 353.163 97.15 326.712 109.555 324.601C121.96 322.491 134.205 346.391 108.545 358.406C108.545 358.406 104.143 355.751 103.605 353.163Z" fill="white"/>
<path d="M82.987 382.855H118.915L115.915 405.199H85.987L82.987 382.855Z" fill="#FF4500"/>
<path d="M101.674 326.494C99.786 325.176 98.154 323.529 96.704 321.749C95.252 319.964 94.065 317.967 93.181 315.841C92.305 313.708 91.878 311.396 91.901 309.106C91.863 306.795 92.588 304.563 93.507 302.513C93.385 303.068 93.256 303.615 93.117 304.155L92.915 304.966C92.875 305.242 92.858 305.521 92.828 305.797C92.768 306.348 92.684 306.895 92.636 307.443L92.671 309.095C92.829 311.28 93.254 313.452 94.113 315.489C94.938 317.535 96.053 319.467 97.323 321.31C97.956 322.234 98.645 323.125 99.384 323.978C100.089 324.859 100.869 325.682 101.674 326.494Z" fill="#2FBA2F"/>
<path d="M96.964 300.785C98.083 300.961 99.144 301.388 100.181 301.855C101.177 302.392 102.161 302.987 103.017 303.738C104.776 305.196 106.106 307.112 107.013 309.174C107.908 311.256 108.275 313.492 108.386 315.705C108.404 316.812 108.318 317.918 108.275 319.016C108.08 320.106 107.919 321.193 107.694 322.264C107.694 321.161 107.756 320.076 107.785 318.991C107.728 317.907 107.727 316.823 107.618 315.753C107.409 314.696 107.4 313.61 107.063 312.587C106.919 312.073 106.832 311.543 106.658 311.039L106.089 309.545C104.437 305.635 101.191 302.35 96.964 300.785Z" fill="#2FBA2F"/>
<path d="M112.001 326.494C114.887 327.494 117.238 329.816 118.516 332.576C119.161 333.954 119.584 335.443 119.739 336.949C119.815 337.32 119.804 337.709 119.802 338.096C119.79 338.481 119.826 338.873 119.771 339.253C119.639 340.009 119.566 340.783 119.303 341.503C118.892 342.983 118.163 344.331 117.419 345.646C116.59 346.913 115.738 348.166 114.723 349.286C112.756 351.573 110.529 353.632 108.075 355.385C109.167 354.355 110.237 353.311 111.233 352.203C112.252 351.118 113.231 350 114.12 348.822C115.908 346.486 117.532 343.983 118.343 341.232C118.601 340.558 118.667 339.852 118.8 339.156C118.856 338.807 118.821 338.455 118.838 338.104C118.844 337.753 118.86 337.404 118.801 337.045C118.711 335.605 118.32 334.211 117.813 332.868C117.283 331.531 116.504 330.282 115.514 329.201C114.544 328.101 113.354 327.165 112.001 326.494Z" fill="#2FBA2F"/>
<path d="M108.315 328.634C109.044 330.575 109.498 332.612 109.692 334.692C109.812 335.731 109.785 336.788 109.669 337.848C109.545 338.902 109.259 339.981 108.647 340.947C107.467 342.577 107.07 344.536 106.841 346.55C106.721 347.554 106.692 348.574 106.694 349.593C106.668 350.616 106.714 351.639 106.765 352.671C106.252 350.666 106.024 348.592 106.074 346.502C106.094 345.457 106.222 344.408 106.471 343.367C106.618 342.851 106.769 342.334 107.01 341.838C107.185 341.344 107.594 340.833 107.801 340.43C108.318 339.654 108.592 338.694 108.735 337.719C108.897 336.744 108.935 335.738 108.928 334.727C108.919 333.716 108.85 332.698 108.728 331.684C108.637 330.667 108.476 329.654 108.315 328.634Z" fill="#2FBA2F"/>
<path d="M99.585 355.385C100.133 355.539 100.562 355.953 100.92 356.371C101.292 356.792 101.583 357.265 101.874 357.739C102.407 358.708 102.834 359.722 103.223 360.745C103.99 362.797 104.531 364.911 104.999 367.032C105.446 369.159 105.814 371.297 106.054 373.453C106.29 375.606 106.501 377.772 106.404 379.943C106.246 378.87 106.078 377.807 105.87 376.745C105.692 375.682 105.501 374.62 105.293 373.563C104.876 371.448 104.484 369.331 104.021 367.231C103.582 365.126 103.074 363.038 102.495 360.975C102.202 359.943 101.863 358.926 101.437 357.947C101.222 357.461 101.005 356.968 100.708 356.525C100.413 356.085 100.087 355.635 99.585 355.385Z" fill="#2FBA2F"/>
<path d="M93.506 356.303C92.929 358.243 92.626 360.226 92.498 362.201C92.391 364.178 92.523 366.159 92.94 368.079C93.332 370.002 93.992 371.879 94.957 373.616C95.854 375.397 97.105 376.98 98.39 378.574C98.002 378.24 97.618 377.898 97.242 377.546C96.871 377.19 96.456 376.867 96.139 376.46C95.48 375.67 94.783 374.893 94.277 373.989C93.674 373.137 93.285 372.177 92.844 371.239C92.64 370.764 92.515 370.259 92.348 369.77C92.172 369.282 92.058 368.779 91.961 368.271C91.543 366.251 91.451 364.166 91.724 362.133C91.988 360.104 92.567 358.11 93.506 356.303Z" fill="#2FBA2F"/>
<path d="M126.701 340.653C127.861 340.326 128.909 340.071 129.885 339.661C130.38 339.473 130.824 339.211 131.274 338.933C131.731 338.652 132.112 338.281 132.583 337.89C132.484 338.466 132.226 339.049 131.797 339.495C131.382 339.952 130.852 340.316 130.279 340.553C129.701 340.779 129.095 340.918 128.485 340.935C127.878 340.956 127.266 340.889 126.701 340.653Z" fill="#2FBA2F"/>
<path d="M125.371 336.282C125.652 335.74 126.075 335.297 126.554 334.923C127.036 334.548 127.591 334.247 128.212 334.072C128.833 333.91 129.517 333.87 130.153 334.053C130.794 334.231 131.32 334.655 131.651 335.152C131.052 334.968 130.539 334.815 130.014 334.8C129.495 334.797 128.991 334.862 128.486 335.006C127.975 335.13 127.478 335.352 126.962 335.566L125.371 336.282Z" fill="#2FBA2F"/>
<path d="M86.475 361.509C85.131 360.511 83.895 359.489 82.534 358.745C81.866 358.36 81.155 358.07 80.424 357.984C79.689 357.89 78.938 358.046 78.155 358.405C78.653 357.738 79.515 357.26 80.446 357.226C81.38 357.165 82.267 357.483 83.025 357.899C83.784 358.331 84.459 358.861 85.037 359.473C85.613 360.081 86.117 360.754 86.475 361.509Z" fill="#2FBA2F"/>
<path d="M86.475 365.923C85.539 366.269 84.556 366.459 83.562 366.547C82.567 366.64 81.555 366.608 80.547 366.457C79.547 366.297 78.527 365.957 77.68 365.328C76.822 364.718 76.258 363.711 76.278 362.733C76.686 363.636 77.325 364.282 78.113 364.697C78.902 365.105 79.789 365.369 80.717 365.499C82.568 365.803 84.492 365.828 86.475 365.923Z" fill="#2FBA2F"/>
<path d="M216.59 324.304C213.561 324.304 210.49 324.162 207.462 323.882C205.648 323.714 203.82 323.493 202.029 323.228C201.726 323.183 201.518 322.908 201.564 322.614C201.61 322.319 201.89 322.114 202.196 322.162C203.967 322.424 205.774 322.641 207.567 322.807C211.258 323.15 215.003 323.281 218.682 323.203C218.989 323.19 219.242 323.433 219.249 323.73C219.256 324.029 219.013 324.275 218.706 324.282C218.002 324.296 217.296 324.304 216.59 324.304ZM222.018 324.153C221.727 324.153 221.482 323.932 221.465 323.646C221.447 323.347 221.681 323.093 221.987 323.076C223.823 322.973 225.67 322.816 227.478 322.611C227.795 322.582 228.058 322.79 228.093 323.085C228.129 323.38 227.911 323.648 227.607 323.683C225.778 323.89 223.909 324.048 222.051 324.152C222.039 324.153 222.028 324.153 222.018 324.153ZM191.272 320.99C191.223 320.99 191.174 320.984 191.125 320.971C190.406 320.779 189.691 320.579 188.98 320.371C188.687 320.286 188.521 319.986 188.609 319.701C188.697 319.416 189.003 319.25 189.3 319.34C190.002 319.544 190.709 319.742 191.419 319.932C191.714 320.011 191.888 320.308 191.807 320.595C191.739 320.833 191.516 320.99 191.272 320.99ZM243.807 320.403C243.569 320.403 243.349 320.253 243.276 320.02C243.187 319.735 243.353 319.435 243.646 319.349C244.348 319.143 245.047 318.929 245.743 318.707C246.035 318.611 246.347 318.768 246.443 319.05C246.538 319.333 246.38 319.637 246.089 319.731C245.385 319.956 244.678 320.172 243.967 320.38C243.914 320.396 243.86 320.403 243.807 320.403ZM256.222 315.808C256.012 315.808 255.812 315.692 255.718 315.495C255.589 315.225 255.71 314.905 255.988 314.779C260.973 312.53 265.791 309.837 270.306 306.771C270.557 306.602 270.902 306.66 271.078 306.905C271.253 307.149 271.192 307.485 270.94 307.656C266.372 310.756 261.498 313.482 256.454 315.756C256.379 315.791 256.3 315.808 256.222 315.808ZM173.71 314.396C173.626 314.396 173.541 314.377 173.46 314.338C171.802 313.521 170.152 312.648 168.555 311.743C168.29 311.593 168.201 311.263 168.356 311.006C168.51 310.75 168.851 310.661 169.114 310.813C170.692 311.708 172.323 312.57 173.961 313.377C174.234 313.512 174.343 313.835 174.205 314.101C174.108 314.288 173.913 314.396 173.71 314.396ZM165.986 310.135C165.885 310.135 165.782 310.108 165.69 310.051C160.988 307.165 156.516 303.849 152.4 300.2C152.174 300 152.157 299.659 152.364 299.439C152.57 299.219 152.922 299.203 153.148 299.404C157.217 303.01 161.636 306.286 166.284 309.14C166.543 309.299 166.62 309.632 166.457 309.883C166.35 310.047 166.17 310.135 165.986 310.135ZM273.317 305.857C273.149 305.857 272.982 305.783 272.873 305.642C272.689 305.404 272.739 305.066 272.984 304.887C274.446 303.819 275.895 302.693 277.291 301.544C277.525 301.353 277.875 301.378 278.073 301.607C278.271 301.834 278.242 302.174 278.008 302.367C276.595 303.529 275.129 304.668 273.65 305.747C273.55 305.822 273.433 305.857 273.317 305.857ZM145.03 292.629C144.875 292.629 144.721 292.566 144.611 292.444C144.123 291.898 143.642 291.346 143.167 290.789C142.972 290.56 143.005 290.22 143.241 290.03C143.477 289.84 143.826 289.872 144.022 290.101C144.491 290.652 144.966 291.198 145.448 291.736C145.649 291.962 145.625 292.302 145.393 292.496C145.289 292.587 145.159 292.629 145.03 292.629ZM289.34 291.018C289.216 291.018 289.09 290.977 288.986 290.893C288.75 290.703 288.718 290.363 288.914 290.134C289.384 289.585 289.847 289.028 290.304 288.467C290.494 288.236 290.843 288.193 291.083 288.38C291.323 288.564 291.364 288.903 291.173 289.137C290.71 289.705 290.241 290.266 289.766 290.822C289.658 290.951 289.5 291.018 289.34 291.018ZM297.099 280.514C297 280.514 296.899 280.489 296.809 280.435C296.548 280.279 296.467 279.946 296.628 279.692C299.515 275.138 302.001 270.305 304.016 265.332C304.129 265.055 304.452 264.917 304.735 265.028C305.02 265.137 305.16 265.45 305.048 265.727C303.009 270.759 300.494 275.649 297.573 280.259C297.467 280.423 297.285 280.514 297.099 280.514ZM134.156 277.695C133.963 277.695 133.775 277.596 133.673 277.421C132.76 275.859 131.882 274.25 131.062 272.635C130.926 272.368 131.039 272.044 131.314 271.913C131.59 271.781 131.921 271.892 132.057 272.157C132.867 273.753 133.735 275.345 134.637 276.888C134.789 277.146 134.696 277.475 134.429 277.623C134.343 277.672 134.249 277.695 134.156 277.695ZM130.144 270.016C129.932 270.016 129.73 269.898 129.638 269.698C127.35 264.759 125.503 259.598 124.146 254.359C124.071 254.07 124.252 253.777 124.548 253.704C124.846 253.637 125.147 253.807 125.221 254.095C126.561 259.274 128.387 264.374 130.649 269.256C130.775 269.527 130.65 269.847 130.371 269.968C130.297 270.001 130.219 270.016 130.144 270.016ZM305.695 263.038C305.634 263.038 305.571 263.028 305.51 263.007C305.221 262.908 305.07 262.599 305.171 262.318C305.781 260.642 306.347 258.926 306.854 257.217C306.939 256.933 307.246 256.764 307.541 256.849C307.835 256.932 308.005 257.23 307.92 257.517C307.407 259.245 306.834 260.981 306.218 262.678C306.138 262.9 305.924 263.038 305.695 263.038ZM122.618 244.182C122.343 244.182 122.104 243.984 122.068 243.711C121.973 242.995 121.886 242.279 121.809 241.56C121.776 241.263 121.997 240.998 122.302 240.967C122.604 240.931 122.879 241.149 122.911 241.446C122.988 242.156 123.074 242.867 123.168 243.574C123.207 243.869 122.993 244.14 122.689 244.178C122.665 244.181 122.641 244.182 122.618 244.182ZM310.574 242.059C310.554 242.059 310.535 242.058 310.515 242.056C310.211 242.024 309.99 241.759 310.022 241.463C310.059 241.123 310.095 240.782 310.128 240.441C310.164 240.07 310.198 239.699 310.23 239.328C310.255 239.032 310.522 238.818 310.829 238.836C311.134 238.86 311.361 239.122 311.335 239.418C311.303 239.792 311.269 240.167 311.232 240.542C311.198 240.887 311.163 241.233 311.125 241.577C311.094 241.854 310.854 242.059 310.574 242.059ZM311.058 229.139C310.761 229.139 310.514 228.91 310.504 228.618C310.321 223.268 309.647 217.908 308.501 212.684C308.438 212.393 308.628 212.106 308.928 212.044C309.221 211.983 309.522 212.168 309.586 212.459C310.745 217.744 311.427 223.168 311.612 228.582C311.622 228.881 311.382 229.129 311.076 229.139C311.07 229.139 311.065 229.139 311.058 229.139ZM122.08 225.892C122.067 225.892 122.053 225.892 122.041 225.891C121.735 225.869 121.505 225.612 121.527 225.314C121.582 224.55 121.648 223.784 121.723 223.016C121.824 221.979 121.943 220.946 122.078 219.921C122.117 219.625 122.395 219.415 122.699 219.454C123.003 219.492 123.218 219.762 123.179 220.058C123.045 221.073 122.927 222.092 122.827 223.118C122.753 223.876 122.688 224.634 122.633 225.39C122.612 225.675 122.369 225.892 122.08 225.892ZM123.111 217.329C123.081 217.329 123.051 217.328 123.021 217.322C122.719 217.273 122.514 216.996 122.563 216.703C123.467 211.349 124.86 206.055 126.704 200.968C126.805 200.687 127.124 200.541 127.411 200.638C127.7 200.737 127.852 201.046 127.75 201.326C125.927 206.354 124.55 211.586 123.657 216.877C123.613 217.142 123.378 217.329 123.111 217.329ZM308.293 209.963C308.045 209.963 307.819 209.798 307.756 209.554C307.313 207.836 306.81 206.103 306.262 204.407C306.171 204.123 306.333 203.82 306.625 203.731C306.918 203.642 307.229 203.8 307.32 204.084C307.875 205.802 308.383 207.554 308.831 209.293C308.906 209.582 308.725 209.874 308.428 209.947C308.383 209.958 308.338 209.963 308.293 209.963ZM131.523 191.748C131.441 191.748 131.357 191.731 131.279 191.693C131.004 191.562 130.891 191.239 131.026 190.971C131.356 190.32 131.692 189.672 132.037 189.03C132.178 188.766 132.512 188.662 132.785 188.801C133.056 188.939 133.162 189.265 133.02 189.529C132.679 190.164 132.346 190.803 132.021 191.447C131.925 191.638 131.727 191.748 131.523 191.748ZM300.435 189.865C300.235 189.865 300.042 189.76 299.943 189.575C299.603 188.942 299.257 188.313 298.902 187.689C298.754 187.428 298.852 187.1 299.12 186.956C299.389 186.814 299.726 186.908 299.874 187.168C300.232 187.8 300.583 188.436 300.927 189.077C301.068 189.341 300.963 189.666 300.691 189.804C300.609 189.845 300.521 189.865 300.435 189.865ZM293.478 178.854C293.305 178.854 293.135 178.775 293.026 178.628C289.827 174.279 286.213 170.175 282.282 166.431C282.063 166.223 282.06 165.881 282.274 165.669C282.488 165.456 282.839 165.452 283.058 165.661C287.034 169.449 290.691 173.6 293.927 178C294.105 178.243 294.048 178.58 293.799 178.753C293.702 178.822 293.59 178.854 293.478 178.854ZM141.478 176.212C141.36 176.212 141.241 176.176 141.14 176.1C140.897 175.918 140.852 175.579 141.039 175.344C142.169 173.919 143.359 172.508 144.574 171.148C144.775 170.922 145.126 170.901 145.357 171.094C145.588 171.29 145.613 171.63 145.412 171.855C144.211 173.2 143.035 174.595 141.918 176.003C141.809 176.139 141.645 176.212 141.478 176.212ZM147.221 169.634C147.086 169.634 146.95 169.587 146.843 169.49C146.619 169.286 146.606 168.945 146.815 168.728C150.611 164.771 154.79 161.115 159.237 157.86C159.483 157.68 159.83 157.728 160.014 157.966C160.198 158.204 160.149 158.542 159.905 158.721C155.509 161.938 151.378 165.552 147.627 169.462C147.518 169.577 147.37 169.634 147.221 169.634ZM280.254 164.362C280.12 164.362 279.986 164.316 279.88 164.221C278.531 163.023 277.125 161.846 275.702 160.723C275.464 160.536 275.428 160.196 275.621 159.965C275.813 159.734 276.163 159.698 276.401 159.886C277.842 161.022 279.264 162.213 280.629 163.426C280.855 163.627 280.871 163.968 280.664 164.188C280.554 164.303 280.404 164.362 280.254 164.362ZM168.799 152.861C168.608 152.861 168.423 152.765 168.32 152.593C168.166 152.337 168.255 152.006 168.519 151.856C169.16 151.491 169.806 151.134 170.456 150.784C170.724 150.641 171.061 150.735 171.21 150.995C171.358 151.256 171.261 151.583 170.993 151.728C170.351 152.074 169.712 152.427 169.079 152.787C168.99 152.837 168.894 152.861 168.799 152.861ZM262.279 151.806C262.188 151.806 262.096 151.785 262.011 151.739C261.366 151.393 260.718 151.053 260.064 150.72C259.793 150.582 259.688 150.257 259.83 149.993C259.971 149.73 260.306 149.627 260.579 149.766C261.24 150.102 261.897 150.445 262.549 150.796C262.816 150.94 262.914 151.268 262.766 151.529C262.663 151.705 262.474 151.806 262.279 151.806ZM250.207 146.357C250.141 146.357 250.075 146.346 250.01 146.322C244.881 144.424 239.534 142.955 234.117 141.957C233.816 141.901 233.619 141.619 233.676 141.327C233.733 141.034 234.018 140.84 234.324 140.898C239.804 141.908 245.214 143.394 250.404 145.315C250.691 145.421 250.834 145.733 250.725 146.01C250.641 146.225 250.43 146.357 250.207 146.357ZM185.909 145.247C185.678 145.247 185.463 145.106 185.384 144.882C185.285 144.601 185.439 144.294 185.73 144.198C187.483 143.615 189.273 143.077 191.051 142.599C191.343 142.521 191.651 142.687 191.734 142.975C191.816 143.262 191.642 143.56 191.347 143.639C189.59 144.112 187.821 144.643 186.089 145.22C186.03 145.238 185.969 145.247 185.909 145.247ZM194.419 142.848C194.168 142.848 193.941 142.682 193.88 142.435C193.808 142.145 193.992 141.855 194.29 141.785C199.697 140.525 205.259 139.727 210.822 139.412C211.138 139.398 211.391 139.622 211.408 139.918C211.426 140.216 211.192 140.471 210.887 140.488C205.389 140.8 199.893 141.589 194.549 142.833C194.505 142.843 194.462 142.848 194.419 142.848ZM230.942 141.418C230.914 141.418 230.886 141.416 230.857 141.411C229.048 141.141 227.208 140.92 225.387 140.75C225.082 140.722 224.858 140.46 224.888 140.163C224.917 139.867 225.18 139.645 225.492 139.678C227.334 139.848 229.196 140.073 231.026 140.346C231.328 140.392 231.536 140.667 231.49 140.961C231.448 141.228 231.212 141.418 230.942 141.418ZM224.154 140.644C224.139 140.644 224.124 140.643 224.108 140.642C223.374 140.582 222.64 140.533 221.908 140.491C221.602 140.473 221.369 140.218 221.387 139.921C221.405 139.624 221.67 139.395 221.973 139.415C222.714 139.457 223.456 139.507 224.199 139.567C224.504 139.592 224.732 139.851 224.707 140.149C224.682 140.431 224.44 140.644 224.154 140.644Z" fill="#407BFF"/>
<path d="M128.598 232.386C128.577 229.549 128.699 226.75 128.956 223.988C131.152 200.33 143.291 179.427 161.295 165.292C176.218 153.574 195.178 146.504 215.853 146.361C216.389 146.357 216.925 146.36 217.454 146.362C228.5 146.48 239.057 148.578 248.767 152.308H248.773C278.454 163.724 300.255 190.391 303.839 222.442C304.157 225.313 304.333 228.224 304.354 231.173C304.406 238.295 303.559 245.214 301.916 251.833C297.063 271.449 285.238 288.454 269.108 300.197C254.602 310.751 236.618 317.062 217.098 317.197C206.641 317.269 196.597 315.563 187.278 312.37C153.318 300.747 128.868 269.398 128.598 232.386Z" fill="#407BFF"/>
<path d="M128.598 232.386C128.577 229.549 128.699 226.75 128.956 223.988C131.152 200.33 143.291 179.427 161.295 165.292C176.218 153.574 195.178 146.504 215.853 146.361C216.389 146.357 216.925 146.36 217.454 146.362C228.5 146.48 239.057 148.578 248.767 152.308H248.773C278.454 163.724 300.255 190.391 303.839 222.442C304.157 225.313 304.333 228.224 304.354 231.173C304.406 238.295 303.559 245.214 301.916 251.833C297.063 271.449 285.238 288.454 269.108 300.197C254.602 310.751 236.618 317.062 217.098 317.197C206.641 317.269 196.597 315.563 187.278 312.37C153.318 300.747 128.868 269.398 128.598 232.386Z" fill="#07AD07"/>
<path opacity="0.4" d="M190.147 294.005C188.497 294.16 187.754 296.131 187.418 297.738C186.919 300.151 186.414 302.564 185.915 304.977C188.94 306.355 188.688 309.94 187.28 312.372C153.317 300.747 128.868 269.398 128.598 232.386C128.577 229.549 128.699 226.75 128.956 223.988C129.027 223.943 129.104 223.905 129.181 223.867C131.576 222.767 133.466 224.758 135.272 225.881C135.68 226.135 140.946 228.621 141.015 227.93C140.793 230.165 140.917 232.43 141.382 234.63C141.417 234.796 141.465 234.979 141.609 235.075C141.952 235.304 142.34 234.844 142.465 234.458C142.785 233.473 142.922 232.434 143.302 231.47C143.682 230.506 144.377 229.58 145.39 229.27C146.409 228.958 147.519 229.325 148.577 229.181C149.868 229.006 150.944 228.074 151.596 226.978C152.225 225.919 152.517 224.694 152.834 223.53C154.076 226.21 157.225 224.557 159.075 226.723C159.669 227.419 160.384 228.422 161.247 228.085C162.068 227.764 162.162 226.401 163.04 226.295C163.654 226.221 164.104 226.877 164.195 227.472C164.286 228.067 164.187 228.704 164.446 229.251C164.809 230.02 165.912 230.348 166.656 229.911C167.325 229.517 167.583 228.719 168.001 228.077C168.419 227.434 169.315 226.894 169.945 227.345C170.093 227.451 170.204 227.601 170.289 227.759C170.899 228.9 170.208 230.285 169.391 231.297C168.574 232.309 167.566 233.321 167.48 234.604C167.954 234.933 168.705 234.781 169.003 234.293C169.107 234.124 169.164 233.92 169.319 233.792C169.656 233.516 170.156 233.779 170.527 234.012C172.271 235.107 174.475 235.487 176.5 235.041C176.651 232.438 176.802 229.834 176.953 227.231C177.56 227.211 177.924 227.174 178.154 226.568C180.163 228.47 182.004 230.518 184.219 232.232C184.484 232.437 184.768 232.662 184.858 232.98C184.952 233.311 184.81 233.662 184.831 234.006C184.902 235.142 186.469 235.441 187.64 235.411C187.98 235.594 187.784 236.137 187.445 236.32C187.105 236.504 186.68 236.522 186.373 236.754C185.914 237.101 185.906 237.778 186.074 238.32C186.656 240.201 189.022 241.347 190.918 240.666C191.144 240.586 191.372 240.475 191.506 240.28C191.803 239.855 191.522 239.292 191.468 238.781C191.255 236.764 193.494 237.233 194.526 237.791C195.926 238.547 196.711 240.553 196.972 241.988C197.278 243.665 198.581 254.791 202.401 253.254C202.759 253.109 203.018 252.796 203.2 252.462C203.752 251.452 203.713 250.235 204.117 249.161C204.521 248.087 205.779 247.109 206.807 247.665C207.219 247.888 207.482 248.307 207.876 248.56C208.974 249.263 210.536 248.419 211.733 248.949C212.283 249.193 212.664 249.69 213.163 250.023C213.662 250.354 214.445 250.461 214.796 249.983C215.19 249.447 214.728 248.641 215.051 248.062C215.39 247.455 216.444 247.581 216.802 248.178C217.16 248.775 216.944 249.565 216.503 250.106C216.272 250.39 215.975 250.65 215.898 251.003C215.761 251.637 216.379 252.164 216.927 252.533C217.798 253.12 218.67 253.706 219.541 254.292C219.484 254.878 218.896 255.287 218.313 255.445C217.73 255.605 217.106 255.598 216.527 255.785C213.738 256.689 213.749 260.713 210.089 259.923C210.307 258.854 209.134 257.766 208.047 258.026C206.705 258.348 205.839 260.205 204.51 259.838C204.048 259.711 203.696 259.319 203.228 259.212C201.937 258.914 201.305 260.843 200.942 261.664C199.738 264.388 201.612 264.716 201.536 267.147C201.501 268.259 200.654 269.198 200.444 270.293C200.251 271.3 200.614 272.341 200.473 273.357C200.087 276.147 196.288 274.455 194.605 274.131C195.52 275.713 194.159 277.635 192.676 278.732C190.397 280.415 190.787 280.27 190.503 282.7C190.428 283.342 190.049 283.992 189.423 284.209C188.333 284.585 187.272 283.537 186.121 283.428C185.569 283.376 185.008 283.545 184.461 283.455C183.025 283.219 182.524 281.507 181.587 280.422C180.768 279.473 179.448 278.955 178.181 279.085C178.078 279.802 178.075 280.532 178.172 281.249C178.977 281.732 179.782 282.215 180.586 282.698C181.298 283.125 182.035 283.577 182.475 284.268C182.722 284.655 182.874 285.116 183.231 285.41C183.941 285.996 185.005 285.643 185.934 285.584C188.188 285.441 191.857 286.807 194.028 287.5C196.342 288.239 197.152 289.83 199.286 290.542C199.662 290.668 199.747 291.198 199.525 291.519C199.303 291.84 198.893 291.984 198.501 292.051C197.592 292.207 196.63 292.053 195.82 291.622C196.882 292.188 193.779 294.678 193.217 294.802C192.297 295.003 191.059 294.329 190.123 294.283C187.801 294.168 186.455 294.617 187.98 297.071C188.563 298.01 189.243 299.206 188.603 300.109C187.988 299.86 187.248 300.22 186.903 300.774C186.559 301.328 186.533 302.014 186.609 302.657C186.66 303.091 186.768 303.549 187.094 303.848C187.268 304.009 187.498 304.116 187.63 304.31C188.062 304.942 187.174 305.635 186.445 305.907" fill="#407BFF"/>
<path opacity="0.4" d="M267.051 196.154C266.328 195.629 265.301 196.052 264.548 196.537C263.795 197.022 262.911 197.588 262.062 197.29C262.046 196.272 262.029 195.254 262.013 194.236C262.01 194.044 261.997 193.831 261.855 193.699C261.71 193.565 261.487 193.566 261.287 193.575C260.613 193.605 259.939 193.635 259.265 193.664C258.703 194.265 260.269 194.999 260.046 195.781C259.948 196.127 259.545 196.278 259.22 196.447C256.445 197.894 258.205 200.904 259.463 202.539C260.923 204.436 260.825 207.021 260.668 209.388C260.61 210.229 260.507 211.171 259.839 211.722C259.191 212.266 258.235 212.228 257.404 212.467C255.967 212.872 254.95 214.108 253.606 214.752C248.908 216.999 245.811 212.111 247.341 208.261C248.134 206.265 248.474 206.643 248.02 204.511C247.831 203.621 248.134 202.572 247.182 201.965C246.173 201.322 244.717 202.013 244.636 203.207C244.557 204.38 244.281 205.493 244.776 206.595C243.386 206.093 241.732 206.412 240.213 206.411C240.43 207.772 238.624 208.969 237.399 208.278C237.44 207.611 237.254 206.694 236.567 206.7C236.367 206.702 236.18 206.795 236.008 206.893C235.287 207.306 234.65 207.856 233.891 208.201C232.724 208.73 229.369 208.479 228.845 210.01C228.753 210.28 228.754 210.573 228.645 210.837C228.412 211.396 227.68 211.67 227.087 211.491C226.493 211.312 226.067 210.759 225.952 210.165C225.875 209.769 225.918 209.355 225.812 208.965C225.247 206.898 223.063 208.516 222.088 207.959C221.62 207.692 219.692 204.168 219.65 203.741C218.722 204.864 217.334 205.81 215.791 205.74C214.101 205.664 213.38 204.357 213 202.762C212.599 201.077 212.578 199.069 212.199 197.849C211.995 197.193 211.821 196.396 212.298 195.893C212.895 195.263 214.166 195.504 214.599 194.758C214.736 194.521 214.748 194.238 214.795 193.969C215.073 192.398 216.885 191.259 218.473 191.659C218.992 191.328 219.001 190.611 219.031 190.008C219.061 189.406 219.324 188.66 219.943 188.618C220.655 188.568 220.978 189.474 220.966 190.167C220.954 190.874 220.841 191.579 220.63 192.257C220.473 192.762 220.26 193.305 220.445 193.801C220.584 194.176 220.925 194.443 221.258 194.676C222.061 195.238 222.975 195.744 223.965 195.737C224.955 195.731 225.997 195.032 226.036 194.07C226.046 193.811 225.987 193.549 226.049 193.298C226.209 192.652 227.056 192.43 227.732 192.519C228.408 192.608 229.083 192.883 229.751 192.751C230.42 192.618 230.976 191.772 230.502 191.294C231.401 190.988 232.686 190.836 233.04 191.695C233.154 191.971 233.122 192.28 233.128 192.577C233.163 194.412 235.509 197.059 237.11 195.141C238.163 193.879 236.35 191.585 238.239 190.547C239.142 190.051 240.367 190.489 241.261 189.976C241.54 189.655 241.061 189.219 240.642 189.112C239.318 188.774 237.823 189.169 236.857 190.111C236.322 189.041 237.149 187.475 236.215 186.707C235.293 185.948 233.52 186.841 232.829 185.878C232.631 185.603 232.6 185.25 232.575 184.913C232.453 183.257 232.978 180.218 230.571 179.94C230.279 179.906 229.975 179.928 229.702 179.824C228.871 179.51 228.878 178.379 229.032 177.526C229.936 177.148 230.906 177.799 231.776 178.247C232.646 178.695 234.027 178.77 234.323 177.858C234.535 177.204 234.008 176.387 234.453 175.855C234.659 175.609 235.024 175.515 235.199 175.247C235.622 174.597 234.594 173.946 234.411 173.199C234.159 172.168 235.576 171.506 236.662 171.585C237.749 171.664 238.965 172.019 239.842 171.39C240.12 171.191 240.326 170.912 240.584 170.689C241.38 170.004 242.538 169.942 243.601 169.915C245.297 169.873 241.438 163.092 241.4 162.679C241.108 159.533 244.425 157.86 246.326 155.859C247.319 154.805 248.046 153.558 248.773 152.31C277.35 163.302 298.482 188.809 303.275 218.335C303.49 219.658 303.746 221.027 303.755 222.347C301.75 221.797 298.629 220.338 296.593 221.524C294.007 223.029 295.878 226.76 292.898 227.862C292.16 227.852 292.373 226.671 291.945 226.086C291.707 225.761 291.272 225.652 290.906 225.472C290.54 225.292 290.185 224.908 290.334 224.536C289.689 224.043 288.8 224.672 288.2 225.216C287.496 225.857 286.69 226.446 285.746 226.638C283.779 227.04 281.962 225.669 280.19 224.747C278.726 223.984 277.129 223.498 275.543 223.017C276.31 223.06 276.698 222.029 276.403 221.34C276.108 220.651 275.439 220.193 274.95 219.617C274.117 218.633 274.757 217.489 274.06 216.444C273.198 215.144 271.539 214.234 271.399 212.698C271.224 210.836 273.346 209.648 275.129 208.958C274.184 206.856 271.624 205.412 271.626 203.115C271.626 202.23 272.033 201.405 272.427 200.612C273.235 198.988 274.043 197.364 274.851 195.745C275.188 195.072 275.531 194.329 275.326 193.609C275.094 192.757 274.2 192.267 273.396 191.878C272.521 191.451 271.647 191.024 270.772 190.597C270.409 190.424 270.014 190.245 269.621 190.31C269.195 190.382 268.882 190.71 268.619 191.045C267.193 192.843 266.512 195.181 266.748 197.445C263.646 196.996 260.6 196.176 257.706 194.998C258.028 196.74 257.288 198.663 257.843 200.294" fill="#407BFF"/>
<path opacity="0.4" d="M194.39 210.409C193.555 210.991 192.885 211.88 192.834 212.879C192.802 213.494 193.004 214.098 193.045 214.712C193.086 215.326 192.907 216.029 192.352 216.325C191.643 216.704 190.788 216.233 190.129 215.777C189.593 215.407 189.016 214.978 188.885 214.352C188.789 213.894 188.956 213.421 188.914 212.955C188.831 212.034 187.992 211.386 187.322 210.729C186.652 210.072 186.083 209.037 186.611 208.268C186.959 207.762 187.663 207.585 188.036 207.096C188.946 205.904 187.301 204.234 188.054 203.148C188.947 201.861 191.16 202.52 192.385 203.17C193.625 203.828 194.526 205.049 195.413 206.082C197.92 209.004 197.044 208.557 194.39 210.409Z" fill="#407BFF"/>
<path opacity="0.4" d="M161.368 165.266C176.071 152.868 196.591 146.494 215.854 146.361C216.39 146.357 216.926 146.36 217.455 146.362C219.997 149.148 221.345 154.424 216.309 155.409C216.307 155.943 216.623 156.076 216.901 156.503C217.336 157.173 216.61 158.018 215.856 158.32C213.383 159.313 210.38 159.255 210.773 162.512C211.242 166.395 213.129 163.924 215.203 165.329C215.503 165.533 215.679 165.864 215.92 166.132C216.802 167.117 218.349 167.109 219.689 167.023C219.353 166.26 219.875 165.261 220.707 165.075C221.021 165.005 221.373 165.028 221.634 164.845C222.194 164.452 221.77 163.521 221.131 163.265C220.491 163.009 219.756 163.115 219.092 162.928C218.428 162.74 217.822 161.975 218.225 161.428C218.393 161.199 218.686 161.093 218.967 161.031C220.15 160.772 221.456 161.125 222.332 161.939C222.553 161.321 223.24 160.893 223.91 160.957C224.58 161.021 225.169 161.57 225.263 162.217C225.4 163.165 224.731 164.455 225.603 164.898C224.829 164.701 223.951 164.97 223.433 165.564C221.395 167.898 222.608 173.578 217.236 172.625C216.373 172.473 215.548 172.115 214.672 172.07C213.796 172.025 212.792 172.421 212.561 173.243C211.432 171.652 208.538 171.992 207.575 170.3C207.122 169.504 207.328 168.41 208.042 167.821C208.161 167.722 208.297 167.63 208.354 167.49C208.471 167.203 208.207 166.91 208.165 166.605C208.091 166.074 208.682 165.663 208.754 165.131C208.855 164.39 207.97 163.918 207.227 163.731C206.483 163.544 205.575 163.279 205.424 162.547C205.373 162.297 205.427 162.035 205.376 161.786C205.272 161.282 204.745 160.945 204.221 160.88C203.697 160.814 203.172 160.961 202.665 161.106C202.32 161.392 202.473 161.959 202.782 162.281C203.091 162.604 203.519 162.816 203.773 163.181C203.915 163.385 203.216 167.813 203.56 167.697C201.931 168.243 198.454 168.324 199.155 170.69C199.402 171.525 199.903 172.395 199.585 173.207C200.73 172.895 201.879 172.594 203.031 172.307C203.312 172.667 202.851 173.158 202.401 173.269C201.951 173.38 201.417 173.363 201.111 173.702C200.896 173.94 200.868 174.283 200.85 174.598C200.791 175.627 200.732 176.656 200.673 177.685C200.609 178.8 200.455 180.08 199.504 180.708C198.422 181.424 196.893 180.854 195.984 179.94C195.766 179.72 195.526 179.463 195.213 179.462C194.929 179.461 194.698 179.671 194.487 179.855C193.371 180.824 191.811 181.408 190.355 181.073C188.898 180.739 187.694 179.315 187.939 177.879C188.033 177.327 188.279 176.651 187.84 176.289C187.582 176.076 187.141 176.05 187.025 175.741C186.879 175.352 187.39 175.072 187.732 174.825C188.349 174.38 188.57 173.486 188.229 172.817C188.054 172.474 184.879 171.206 184.386 171.439C183.255 171.975 183.454 174.923 183.314 176.059C183.26 176.499 183.177 176.988 182.811 177.252C182.241 177.664 181.418 177.235 180.976 176.695C180.534 176.155 180.211 175.468 179.571 175.168C179.199 174.993 178.772 174.978 178.359 174.967C177.523 174.943 176.583 174.956 175.993 175.533C175.717 175.804 175.556 176.167 175.28 176.437C174.651 177.055 173.603 177.025 172.762 176.732C171.921 176.439 171.164 175.934 170.301 175.71C168.465 175.234 166.365 176.08 164.676 175.232C163.86 174.823 163.271 173.69 163.918 173.055C164.476 172.507 165.686 172.601 165.835 171.844C165.977 171.119 164.148 170.071 163.826 169.436C163.571 168.934 164.128 167.999 163.539 167.067C163.055 166.313 161.888 166.081 161.368 165.266Z" fill="#407BFF"/>
<path opacity="0.4" d="M269.286 287.583C270.33 286.902 271.503 286.511 271.866 285.114C272.361 283.212 271.307 282.402 269.361 283.107C269.188 283.169 268.999 283.235 268.823 283.181C268.261 283.007 268.659 282.199 269.026 281.749C269.882 280.697 269.941 279.286 269.497 278.064C269.392 277.773 274.871 277.652 275.474 277.973C277.586 279.096 276.21 283.474 278.661 282.736C278.827 281.071 278.736 279.348 278.74 277.664C279.575 277.633 280.409 277.602 281.244 277.572C280.622 277.595 280.992 274.491 281.203 274.151C282.025 272.833 284.564 273.393 284.338 270.902C284.052 267.75 277.772 267.109 278.524 270.726C276.611 271.438 274.374 271.597 272.328 271.539C272.281 272.179 272.241 272.826 272.2 273.466C271.724 273.752 271.098 273.8 270.581 273.584C269.588 271.966 269.74 269.749 270.942 268.267C270.224 267.199 271.099 265.825 271.937 264.841C269.64 263.206 270.3 259.055 272.999 258.17C275.704 257.285 278.811 260.207 277.997 262.86C279.315 263.008 280.578 263.569 281.553 264.441C281.696 261.09 284.294 257.972 287.639 257.146C289.321 256.726 291.316 256.75 292.462 255.48C292.974 254.919 293.227 254.176 293.7 253.583C294.775 252.258 296.697 251.987 298.432 251.894C299.593 251.835 300.755 251.815 301.918 251.832C297.065 271.448 285.24 288.453 269.11 300.196C268.497 300.22 267.864 300.211 267.333 299.939C266.348 299.425 266.042 298.215 265.841 297.144C265.048 292.977 265.493 290.382 268.982 287.791C269.081 287.72 269.183 287.65 269.286 287.583Z" fill="#407BFF"/>
<path d="M190.147 294.005C188.497 294.16 187.754 296.131 187.418 297.738C186.919 300.151 186.414 302.564 185.915 304.977C188.94 306.355 188.688 309.94 187.28 312.372C153.317 300.747 128.868 269.398 128.598 232.386C128.577 229.549 128.699 226.75 128.956 223.988C129.027 223.943 129.104 223.905 129.181 223.867C131.576 222.767 133.466 224.758 135.272 225.881C135.68 226.135 140.946 228.621 141.015 227.93C140.793 230.165 140.917 232.43 141.382 234.63C141.417 234.796 141.465 234.979 141.609 235.075C141.952 235.304 142.34 234.844 142.465 234.458C142.785 233.473 142.922 232.434 143.302 231.47C143.682 230.506 144.377 229.58 145.39 229.27C146.409 228.958 147.519 229.325 148.577 229.181C149.868 229.006 150.944 228.074 151.596 226.978C152.225 225.919 152.517 224.694 152.834 223.53C154.076 226.21 157.225 224.557 159.075 226.723C159.669 227.419 160.384 228.422 161.247 228.085C162.068 227.764 162.162 226.401 163.04 226.295C163.654 226.221 164.104 226.877 164.195 227.472C164.286 228.067 164.187 228.704 164.446 229.251C164.809 230.02 165.912 230.348 166.656 229.911C167.325 229.517 167.583 228.719 168.001 228.077C168.419 227.434 169.315 226.894 169.945 227.345C170.093 227.451 170.204 227.601 170.289 227.759C170.899 228.9 170.208 230.285 169.391 231.297C168.574 232.309 167.566 233.321 167.48 234.604C167.954 234.933 168.705 234.781 169.003 234.293C169.107 234.124 169.164 233.92 169.319 233.792C169.656 233.516 170.156 233.779 170.527 234.012C172.271 235.107 174.475 235.487 176.5 235.041C176.651 232.438 176.802 229.834 176.953 227.231C177.56 227.211 177.924 227.174 178.154 226.568C180.163 228.47 182.004 230.518 184.219 232.232C184.484 232.437 184.768 232.662 184.858 232.98C184.952 233.311 184.81 233.662 184.831 234.006C184.902 235.142 186.469 235.441 187.64 235.411C187.98 235.594 187.784 236.137 187.445 236.32C187.105 236.504 186.68 236.522 186.373 236.754C185.914 237.101 185.906 237.778 186.074 238.32C186.656 240.201 189.022 241.347 190.918 240.666C191.144 240.586 191.372 240.475 191.506 240.28C191.803 239.855 191.522 239.292 191.468 238.781C191.255 236.764 193.494 237.233 194.526 237.791C195.926 238.547 196.711 240.553 196.972 241.988C197.278 243.665 198.581 254.791 202.401 253.254C202.759 253.109 203.018 252.796 203.2 252.462C203.752 251.452 203.713 250.235 204.117 249.161C204.521 248.087 205.779 247.109 206.807 247.665C207.219 247.888 207.482 248.307 207.876 248.56C208.974 249.263 210.536 248.419 211.733 248.949C212.283 249.193 212.664 249.69 213.163 250.023C213.662 250.354 214.445 250.461 214.796 249.983C215.19 249.447 214.728 248.641 215.051 248.062C215.39 247.455 216.444 247.581 216.802 248.178C217.16 248.775 216.944 249.565 216.503 250.106C216.272 250.39 215.975 250.65 215.898 251.003C215.761 251.637 216.379 252.164 216.927 252.533C217.798 253.12 218.67 253.706 219.541 254.292C219.484 254.878 218.896 255.287 218.313 255.445C217.73 255.605 217.106 255.598 216.527 255.785C213.738 256.689 213.749 260.713 210.089 259.923C210.307 258.854 209.134 257.766 208.047 258.026C206.705 258.348 205.839 260.205 204.51 259.838C204.048 259.711 203.696 259.319 203.228 259.212C201.937 258.914 201.305 260.843 200.942 261.664C199.738 264.388 201.612 264.716 201.536 267.147C201.501 268.259 200.654 269.198 200.444 270.293C200.251 271.3 200.614 272.341 200.473 273.357C200.087 276.147 196.288 274.455 194.605 274.131C195.52 275.713 194.159 277.635 192.676 278.732C190.397 280.415 190.787 280.27 190.503 282.7C190.428 283.342 190.049 283.992 189.423 284.209C188.333 284.585 187.272 283.537 186.121 283.428C185.569 283.376 185.008 283.545 184.461 283.455C183.025 283.219 182.524 281.507 181.587 280.422C180.768 279.473 179.448 278.955 178.181 279.085C178.078 279.802 178.075 280.532 178.172 281.249C178.977 281.732 179.782 282.215 180.586 282.698C181.298 283.125 182.035 283.577 182.475 284.268C182.722 284.655 182.874 285.116 183.231 285.41C183.941 285.996 185.005 285.643 185.934 285.584C188.188 285.441 191.857 286.807 194.028 287.5C196.342 288.239 197.152 289.83 199.286 290.542C199.662 290.668 199.747 291.198 199.525 291.519C199.303 291.84 198.893 291.984 198.501 292.051C197.592 292.207 196.63 292.053 195.82 291.622C196.882 292.188 193.779 294.678 193.217 294.802C192.297 295.003 191.059 294.329 190.123 294.283C187.801 294.168 186.455 294.617 187.98 297.071C188.563 298.01 189.243 299.206 188.603 300.109C187.988 299.86 187.248 300.22 186.903 300.774C186.559 301.328 186.533 302.014 186.609 302.657C186.66 303.091 186.768 303.549 187.094 303.848C187.268 304.009 187.498 304.116 187.63 304.31C188.062 304.942 187.174 305.635 186.445 305.907" fill="#E6E6FA"/>
<path d="M267.051 196.154C266.328 195.629 265.301 196.052 264.548 196.537C263.795 197.022 262.911 197.588 262.062 197.29C262.046 196.272 262.029 195.254 262.013 194.236C262.01 194.044 261.997 193.831 261.855 193.699C261.71 193.565 261.487 193.566 261.287 193.575C260.613 193.605 259.939 193.635 259.265 193.664C258.703 194.265 260.269 194.999 260.046 195.781C259.948 196.127 259.545 196.278 259.22 196.447C256.445 197.894 258.205 200.904 259.463 202.539C260.923 204.436 260.825 207.021 260.668 209.388C260.61 210.229 260.507 211.171 259.839 211.722C259.191 212.266 258.235 212.228 257.404 212.467C255.967 212.872 254.95 214.108 253.606 214.752C248.908 216.999 245.811 212.111 247.341 208.261C248.134 206.265 248.474 206.643 248.02 204.511C247.831 203.621 248.134 202.572 247.182 201.965C246.173 201.322 244.717 202.013 244.636 203.207C244.557 204.38 244.281 205.493 244.776 206.595C243.386 206.093 241.732 206.412 240.213 206.411C240.43 207.772 238.624 208.969 237.399 208.278C237.44 207.611 237.254 206.694 236.567 206.7C236.367 206.702 236.18 206.795 236.008 206.893C235.287 207.306 234.65 207.856 233.891 208.201C232.724 208.73 229.369 208.479 228.845 210.01C228.753 210.28 228.754 210.573 228.645 210.837C228.412 211.396 227.68 211.67 227.087 211.491C226.493 211.312 226.067 210.759 225.952 210.165C225.875 209.769 225.918 209.355 225.812 208.965C225.247 206.898 223.063 208.516 222.088 207.959C221.62 207.692 219.692 204.168 219.65 203.741C218.722 204.864 217.334 205.81 215.791 205.74C214.101 205.664 213.38 204.357 213 202.762C212.599 201.077 212.578 199.069 212.199 197.849C211.995 197.193 211.821 196.396 212.298 195.893C212.895 195.263 214.166 195.504 214.599 194.758C214.736 194.521 214.748 194.238 214.795 193.969C215.073 192.398 216.885 191.259 218.473 191.659C218.992 191.328 219.001 190.611 219.031 190.008C219.061 189.406 219.324 188.66 219.943 188.618C220.655 188.568 220.978 189.474 220.966 190.167C220.954 190.874 220.841 191.579 220.63 192.257C220.473 192.762 220.26 193.305 220.445 193.801C220.584 194.176 220.925 194.443 221.258 194.676C222.061 195.238 222.975 195.744 223.965 195.737C224.955 195.731 225.997 195.032 226.036 194.07C226.046 193.811 225.987 193.549 226.049 193.298C226.209 192.652 227.056 192.43 227.732 192.519C228.408 192.608 229.083 192.883 229.751 192.751C230.42 192.618 230.976 191.772 230.502 191.294C231.401 190.988 232.686 190.836 233.04 191.695C233.154 191.971 233.122 192.28 233.128 192.577C233.163 194.412 235.509 197.059 237.11 195.141C238.163 193.879 236.35 191.585 238.239 190.547C239.142 190.051 240.367 190.489 241.261 189.976C241.54 189.655 241.061 189.219 240.642 189.112C239.318 188.774 237.823 189.169 236.857 190.111C236.322 189.041 237.149 187.475 236.215 186.707C235.293 185.948 233.52 186.841 232.829 185.878C232.631 185.603 232.6 185.25 232.575 184.913C232.453 183.257 232.978 180.218 230.571 179.94C230.279 179.906 229.975 179.928 229.702 179.824C228.871 179.51 228.878 178.379 229.032 177.526C229.936 177.148 230.906 177.799 231.776 178.247C232.646 178.695 234.027 178.77 234.323 177.858C234.535 177.204 234.008 176.387 234.453 175.855C234.659 175.609 235.024 175.515 235.199 175.247C235.622 174.597 234.594 173.946 234.411 173.199C234.159 172.168 235.576 171.506 236.662 171.585C237.749 171.664 238.965 172.019 239.842 171.39C240.12 171.191 240.326 170.912 240.584 170.689C241.38 170.004 242.538 169.942 243.601 169.915C245.297 169.873 241.438 163.092 241.4 162.679C241.108 159.533 244.425 157.86 246.326 155.859C247.319 154.805 248.046 153.558 248.773 152.31C277.35 163.302 298.482 188.809 303.275 218.335C303.49 219.658 303.746 221.027 303.755 222.347C301.75 221.797 298.629 220.338 296.593 221.524C294.007 223.029 295.878 226.76 292.898 227.862C292.16 227.852 292.373 226.671 291.945 226.086C291.707 225.761 291.272 225.652 290.906 225.472C290.54 225.292 290.185 224.908 290.334 224.536C289.689 224.043 288.8 224.672 288.2 225.216C287.496 225.857 286.69 226.446 285.746 226.638C283.779 227.04 281.962 225.669 280.19 224.747C278.726 223.984 277.129 223.498 275.543 223.017C276.31 223.06 276.698 222.029 276.403 221.34C276.108 220.651 275.439 220.193 274.95 219.617C274.117 218.633 274.757 217.489 274.06 216.444C273.198 215.144 271.539 214.234 271.399 212.698C271.224 210.836 273.346 209.648 275.129 208.958C274.184 206.856 271.624 205.412 271.626 203.115C271.626 202.23 272.033 201.405 272.427 200.612C273.235 198.988 274.043 197.364 274.851 195.745C275.188 195.072 275.531 194.329 275.326 193.609C275.094 192.757 274.2 192.267 273.396 191.878C272.521 191.451 271.647 191.024 270.772 190.597C270.409 190.424 270.014 190.245 269.621 190.31C269.195 190.382 268.882 190.71 268.619 191.045C267.193 192.843 266.512 195.181 266.748 197.445C263.646 196.996 260.6 196.176 257.706 194.998C258.028 196.74 257.288 198.663 257.843 200.294" fill="#E6E6FA"/>
<path opacity="0.7" d="M194.39 210.409C193.555 210.991 192.885 211.88 192.834 212.879C192.802 213.494 193.004 214.098 193.045 214.712C193.086 215.326 192.907 216.029 192.352 216.325C191.643 216.704 190.788 216.233 190.129 215.777C189.593 215.407 189.016 214.978 188.885 214.352C188.789 213.894 188.956 213.421 188.914 212.955C188.831 212.034 187.992 211.386 187.322 210.729C186.652 210.072 186.083 209.037 186.611 208.268C186.959 207.762 187.663 207.585 188.036 207.096C188.946 205.904 187.301 204.234 188.054 203.148C188.947 201.861 191.16 202.52 192.385 203.17C193.625 203.828 194.526 205.049 195.413 206.082C197.92 209.004 197.044 208.557 194.39 210.409Z" fill="white"/>
<path d="M161.368 165.266C176.071 152.868 196.591 146.494 215.854 146.361C216.39 146.357 216.926 146.36 217.455 146.362C219.997 149.148 221.345 154.424 216.309 155.409C216.307 155.943 216.623 156.076 216.901 156.503C217.336 157.173 216.61 158.018 215.856 158.32C213.383 159.313 210.38 159.255 210.773 162.512C211.242 166.395 213.129 163.924 215.203 165.329C215.503 165.533 215.679 165.864 215.92 166.132C216.802 167.117 218.349 167.109 219.689 167.023C219.353 166.26 219.875 165.261 220.707 165.075C221.021 165.005 221.373 165.028 221.634 164.845C222.194 164.452 221.77 163.521 221.131 163.265C220.491 163.009 219.756 163.115 219.092 162.928C218.428 162.74 217.822 161.975 218.225 161.428C218.393 161.199 218.686 161.093 218.967 161.031C220.15 160.772 221.456 161.125 222.332 161.939C222.553 161.321 223.24 160.893 223.91 160.957C224.58 161.021 225.169 161.57 225.263 162.217C225.4 163.165 224.731 164.455 225.603 164.898C224.829 164.701 223.951 164.97 223.433 165.564C221.395 167.898 222.608 173.578 217.236 172.625C216.373 172.473 215.548 172.115 214.672 172.07C213.796 172.025 212.792 172.421 212.561 173.243C211.432 171.652 208.538 171.992 207.575 170.3C207.122 169.504 207.328 168.41 208.042 167.821C208.161 167.722 208.297 167.63 208.354 167.49C208.471 167.203 208.207 166.91 208.165 166.605C208.091 166.074 208.682 165.663 208.754 165.131C208.855 164.39 207.97 163.918 207.227 163.731C206.483 163.544 205.575 163.279 205.424 162.547C205.373 162.297 205.427 162.035 205.376 161.786C205.272 161.282 204.745 160.945 204.221 160.88C203.697 160.814 203.172 160.961 202.665 161.106C202.32 161.392 202.473 161.959 202.782 162.281C203.091 162.604 203.519 162.816 203.773 163.181C203.915 163.385 203.216 167.813 203.56 167.697C201.931 168.243 198.454 168.324 199.155 170.69C199.402 171.525 199.903 172.395 199.585 173.207C200.73 172.895 201.879 172.594 203.031 172.307C203.312 172.667 202.851 173.158 202.401 173.269C201.951 173.38 201.417 173.363 201.111 173.702C200.896 173.94 200.868 174.283 200.85 174.598C200.791 175.627 200.732 176.656 200.673 177.685C200.609 178.8 200.455 180.08 199.504 180.708C198.422 181.424 196.893 180.854 195.984 179.94C195.766 179.72 195.526 179.463 195.213 179.462C194.929 179.461 194.698 179.671 194.487 179.855C193.371 180.824 191.811 181.408 190.355 181.073C188.898 180.739 187.694 179.315 187.939 177.879C188.033 177.327 188.279 176.651 187.84 176.289C187.582 176.076 187.141 176.05 187.025 175.741C186.879 175.352 187.39 175.072 187.732 174.825C188.349 174.38 188.57 173.486 188.229 172.817C188.054 172.474 184.879 171.206 184.386 171.439C183.255 171.975 183.454 174.923 183.314 176.059C183.26 176.499 183.177 176.988 182.811 177.252C182.241 177.664 181.418 177.235 180.976 176.695C180.534 176.155 180.211 175.468 179.571 175.168C179.199 174.993 178.772 174.978 178.359 174.967C177.523 174.943 176.583 174.956 175.993 175.533C175.717 175.804 175.556 176.167 175.28 176.437C174.651 177.055 173.603 177.025 172.762 176.732C171.921 176.439 171.164 175.934 170.301 175.71C168.465 175.234 166.365 176.08 164.676 175.232C163.86 174.823 163.271 173.69 163.918 173.055C164.476 172.507 165.686 172.601 165.835 171.844C165.977 171.119 164.148 170.071 163.826 169.436C163.571 168.934 164.128 167.999 163.539 167.067C163.055 166.313 161.888 166.081 161.368 165.266Z" fill="#E6E6FA"/>
<path d="M269.286 287.583C270.33 286.902 271.503 286.511 271.866 285.114C272.361 283.212 271.307 282.402 269.361 283.107C269.188 283.169 268.999 283.235 268.823 283.181C268.261 283.007 268.659 282.199 269.026 281.749C269.882 280.697 269.941 279.286 269.497 278.064C269.392 277.773 274.871 277.652 275.474 277.973C277.586 279.096 276.21 283.474 278.661 282.736C278.827 281.071 278.736 279.348 278.74 277.664C279.575 277.633 280.409 277.602 281.244 277.572C280.622 277.595 280.992 274.491 281.203 274.151C282.025 272.833 284.564 273.393 284.338 270.902C284.052 267.75 277.772 267.109 278.524 270.726C276.611 271.438 274.374 271.597 272.328 271.539C272.281 272.179 272.241 272.826 272.2 273.466C271.724 273.752 271.098 273.8 270.581 273.584C269.588 271.966 269.74 269.749 270.942 268.267C270.224 267.199 271.099 265.825 271.937 264.841C269.64 263.206 270.3 259.055 272.999 258.17C275.704 257.285 278.811 260.207 277.997 262.86C279.315 263.008 280.578 263.569 281.553 264.441C281.696 261.09 284.294 257.972 287.639 257.146C289.321 256.726 291.316 256.75 292.462 255.48C292.974 254.919 293.227 254.176 293.7 253.583C294.775 252.258 296.697 251.987 298.432 251.894C299.593 251.835 300.755 251.815 301.918 251.832C297.065 271.448 285.24 288.453 269.11 300.196C268.497 300.22 267.864 300.211 267.333 299.939C266.348 299.425 266.042 298.215 265.841 297.144C265.048 292.977 265.493 290.382 268.982 287.791C269.081 287.72 269.183 287.65 269.286 287.583Z" fill="#E6E6FA"/>
<g opacity="0.7">
<path d="M216.59 324.304C213.561 324.304 210.49 324.162 207.462 323.882C205.648 323.714 203.82 323.493 202.029 323.228C201.726 323.183 201.518 322.908 201.564 322.614C201.61 322.319 201.89 322.114 202.196 322.162C203.967 322.424 205.774 322.641 207.567 322.807C211.258 323.15 215.003 323.281 218.682 323.203C218.989 323.19 219.242 323.433 219.249 323.73C219.256 324.029 219.013 324.275 218.706 324.282C218.002 324.296 217.296 324.304 216.59 324.304ZM222.018 324.153C221.727 324.153 221.482 323.932 221.465 323.646C221.447 323.347 221.681 323.093 221.987 323.076C223.823 322.973 225.67 322.816 227.478 322.611C227.795 322.582 228.058 322.79 228.093 323.085C228.129 323.38 227.911 323.648 227.607 323.683C225.778 323.89 223.909 324.048 222.051 324.152C222.039 324.153 222.028 324.153 222.018 324.153ZM191.272 320.99C191.223 320.99 191.174 320.984 191.125 320.971C190.406 320.779 189.691 320.579 188.98 320.371C188.687 320.286 188.521 319.986 188.609 319.701C188.697 319.416 189.003 319.25 189.3 319.34C190.002 319.544 190.709 319.742 191.419 319.932C191.714 320.011 191.888 320.308 191.807 320.595C191.739 320.833 191.516 320.99 191.272 320.99ZM243.807 320.403C243.569 320.403 243.349 320.253 243.276 320.02C243.187 319.735 243.353 319.435 243.646 319.349C244.348 319.143 245.047 318.929 245.743 318.707C246.035 318.611 246.347 318.768 246.443 319.05C246.538 319.333 246.38 319.637 246.089 319.731C245.385 319.956 244.678 320.172 243.967 320.38C243.914 320.396 243.86 320.403 243.807 320.403ZM256.222 315.808C256.012 315.808 255.812 315.692 255.718 315.495C255.589 315.225 255.71 314.905 255.988 314.779C260.973 312.53 265.791 309.837 270.306 306.771C270.557 306.602 270.902 306.66 271.078 306.905C271.253 307.149 271.192 307.485 270.94 307.656C266.372 310.756 261.498 313.482 256.454 315.756C256.379 315.791 256.3 315.808 256.222 315.808ZM173.71 314.396C173.626 314.396 173.541 314.377 173.46 314.338C171.802 313.521 170.152 312.648 168.555 311.743C168.29 311.593 168.201 311.263 168.356 311.006C168.51 310.75 168.851 310.661 169.114 310.813C170.692 311.708 172.323 312.57 173.961 313.377C174.234 313.512 174.343 313.835 174.205 314.101C174.108 314.288 173.913 314.396 173.71 314.396ZM165.986 310.135C165.885 310.135 165.782 310.108 165.69 310.051C160.988 307.165 156.516 303.849 152.4 300.2C152.174 300 152.157 299.659 152.364 299.439C152.57 299.219 152.922 299.203 153.148 299.404C157.217 303.01 161.636 306.286 166.284 309.14C166.543 309.299 166.62 309.632 166.457 309.883C166.35 310.047 166.17 310.135 165.986 310.135ZM273.317 305.857C273.149 305.857 272.982 305.783 272.873 305.642C272.689 305.404 272.739 305.066 272.984 304.887C274.446 303.819 275.895 302.693 277.291 301.544C277.525 301.353 277.875 301.378 278.073 301.607C278.271 301.834 278.242 302.174 278.008 302.367C276.595 303.529 275.129 304.668 273.65 305.747C273.55 305.822 273.433 305.857 273.317 305.857ZM145.03 292.629C144.875 292.629 144.721 292.566 144.611 292.444C144.123 291.898 143.642 291.346 143.167 290.789C142.972 290.56 143.005 290.22 143.241 290.03C143.477 289.84 143.826 289.872 144.022 290.101C144.491 290.652 144.966 291.198 145.448 291.736C145.649 291.962 145.625 292.302 145.393 292.496C145.289 292.587 145.159 292.629 145.03 292.629ZM289.34 291.018C289.216 291.018 289.09 290.977 288.986 290.893C288.75 290.703 288.718 290.363 288.914 290.134C289.384 289.585 289.847 289.028 290.304 288.467C290.494 288.236 290.843 288.193 291.083 288.38C291.323 288.564 291.364 288.903 291.173 289.137C290.71 289.705 290.241 290.266 289.766 290.822C289.658 290.951 289.5 291.018 289.34 291.018ZM297.099 280.514C297 280.514 296.899 280.489 296.809 280.435C296.548 280.279 296.467 279.946 296.628 279.692C299.515 275.138 302.001 270.305 304.016 265.332C304.129 265.055 304.452 264.917 304.735 265.028C305.02 265.137 305.16 265.45 305.048 265.727C303.009 270.759 300.494 275.649 297.573 280.259C297.467 280.423 297.285 280.514 297.099 280.514ZM134.156 277.695C133.963 277.695 133.775 277.596 133.673 277.421C132.76 275.859 131.882 274.25 131.062 272.635C130.926 272.368 131.039 272.044 131.314 271.913C131.59 271.781 131.921 271.892 132.057 272.157C132.867 273.753 133.735 275.345 134.637 276.888C134.789 277.146 134.696 277.475 134.429 277.623C134.343 277.672 134.249 277.695 134.156 277.695ZM130.144 270.016C129.932 270.016 129.73 269.898 129.638 269.698C127.35 264.759 125.503 259.598 124.146 254.359C124.071 254.07 124.252 253.777 124.548 253.704C124.846 253.637 125.147 253.807 125.221 254.095C126.561 259.274 128.387 264.374 130.649 269.256C130.775 269.527 130.65 269.847 130.371 269.968C130.297 270.001 130.219 270.016 130.144 270.016ZM305.695 263.038C305.634 263.038 305.571 263.028 305.51 263.007C305.221 262.908 305.07 262.599 305.171 262.318C305.781 260.642 306.347 258.926 306.854 257.217C306.939 256.933 307.246 256.764 307.541 256.849C307.835 256.932 308.005 257.23 307.92 257.517C307.407 259.245 306.834 260.981 306.218 262.678C306.138 262.9 305.924 263.038 305.695 263.038ZM122.618 244.182C122.343 244.182 122.104 243.984 122.068 243.711C121.973 242.995 121.886 242.279 121.809 241.56C121.776 241.263 121.997 240.998 122.302 240.967C122.604 240.931 122.879 241.149 122.911 241.446C122.988 242.156 123.074 242.867 123.168 243.574C123.207 243.869 122.993 244.14 122.689 244.178C122.665 244.181 122.641 244.182 122.618 244.182ZM310.574 242.059C310.554 242.059 310.535 242.058 310.515 242.056C310.211 242.024 309.99 241.759 310.022 241.463C310.059 241.123 310.095 240.782 310.128 240.441C310.164 240.07 310.198 239.699 310.23 239.328C310.255 239.032 310.522 238.818 310.829 238.836C311.134 238.86 311.361 239.122 311.335 239.418C311.303 239.792 311.269 240.167 311.232 240.542C311.198 240.887 311.163 241.233 311.125 241.577C311.094 241.854 310.854 242.059 310.574 242.059ZM311.058 229.139C310.761 229.139 310.514 228.91 310.504 228.618C310.321 223.268 309.647 217.908 308.501 212.684C308.438 212.393 308.628 212.106 308.928 212.044C309.221 211.983 309.522 212.168 309.586 212.459C310.745 217.744 311.427 223.168 311.612 228.582C311.622 228.881 311.382 229.129 311.076 229.139C311.07 229.139 311.065 229.139 311.058 229.139ZM122.08 225.892C122.067 225.892 122.053 225.892 122.041 225.891C121.735 225.869 121.505 225.612 121.527 225.314C121.582 224.55 121.648 223.784 121.723 223.016C121.824 221.979 121.943 220.946 122.078 219.921C122.117 219.625 122.395 219.415 122.699 219.454C123.003 219.492 123.218 219.762 123.179 220.058C123.045 221.073 122.927 222.092 122.827 223.118C122.753 223.876 122.688 224.634 122.633 225.39C122.612 225.675 122.369 225.892 122.08 225.892ZM123.111 217.329C123.081 217.329 123.051 217.328 123.021 217.322C122.719 217.273 122.514 216.996 122.563 216.703C123.467 211.349 124.86 206.055 126.704 200.968C126.805 200.687 127.124 200.541 127.411 200.638C127.7 200.737 127.852 201.046 127.75 201.326C125.927 206.354 124.55 211.586 123.657 216.877C123.613 217.142 123.378 217.329 123.111 217.329ZM308.293 209.963C308.045 209.963 307.819 209.798 307.756 209.554C307.313 207.836 306.81 206.103 306.262 204.407C306.171 204.123 306.333 203.82 306.625 203.731C306.918 203.642 307.229 203.8 307.32 204.084C307.875 205.802 308.383 207.554 308.831 209.293C308.906 209.582 308.725 209.874 308.428 209.947C308.383 209.958 308.338 209.963 308.293 209.963ZM131.523 191.748C131.441 191.748 131.357 191.731 131.279 191.693C131.004 191.562 130.891 191.239 131.026 190.971C131.356 190.32 131.692 189.672 132.037 189.03C132.178 188.766 132.512 188.662 132.785 188.801C133.056 188.939 133.162 189.265 133.02 189.529C132.679 190.164 132.346 190.803 132.021 191.447C131.925 191.638 131.727 191.748 131.523 191.748ZM300.435 189.865C300.235 189.865 300.042 189.76 299.943 189.575C299.603 188.942 299.257 188.313 298.902 187.689C298.754 187.428 298.852 187.1 299.12 186.956C299.389 186.814 299.726 186.908 299.874 187.168C300.232 187.8 300.583 188.436 300.927 189.077C301.068 189.341 300.963 189.666 300.691 189.804C300.609 189.845 300.521 189.865 300.435 189.865ZM293.478 178.854C293.305 178.854 293.135 178.775 293.026 178.628C289.827 174.279 286.213 170.175 282.282 166.431C282.063 166.223 282.06 165.881 282.274 165.669C282.488 165.456 282.839 165.452 283.058 165.661C287.034 169.449 290.691 173.6 293.927 178C294.105 178.243 294.048 178.58 293.799 178.753C293.702 178.822 293.59 178.854 293.478 178.854ZM141.478 176.212C141.36 176.212 141.241 176.176 141.14 176.1C140.897 175.918 140.852 175.579 141.039 175.344C142.169 173.919 143.359 172.508 144.574 171.148C144.775 170.922 145.126 170.901 145.357 171.094C145.588 171.29 145.613 171.63 145.412 171.855C144.211 173.2 143.035 174.595 141.918 176.003C141.809 176.139 141.645 176.212 141.478 176.212ZM147.221 169.634C147.086 169.634 146.95 169.587 146.843 169.49C146.619 169.286 146.606 168.945 146.815 168.728C150.611 164.771 154.79 161.115 159.237 157.86C159.483 157.68 159.83 157.728 160.014 157.966C160.198 158.204 160.149 158.542 159.905 158.721C155.509 161.938 151.378 165.552 147.627 169.462C147.518 169.577 147.37 169.634 147.221 169.634ZM280.254 164.362C280.12 164.362 279.986 164.316 279.88 164.221C278.531 163.023 277.125 161.846 275.702 160.723C275.464 160.536 275.428 160.196 275.621 159.965C275.813 159.734 276.163 159.698 276.401 159.886C277.842 161.022 279.264 162.213 280.629 163.426C280.855 163.627 280.871 163.968 280.664 164.188C280.554 164.303 280.404 164.362 280.254 164.362ZM168.799 152.861C168.608 152.861 168.423 152.765 168.32 152.593C168.166 152.337 168.255 152.006 168.519 151.856C169.16 151.491 169.806 151.134 170.456 150.784C170.724 150.641 171.061 150.735 171.21 150.995C171.358 151.256 171.261 151.583 170.993 151.728C170.351 152.074 169.712 152.427 169.079 152.787C168.99 152.837 168.894 152.861 168.799 152.861ZM262.279 151.806C262.188 151.806 262.096 151.785 262.011 151.739C261.366 151.393 260.718 151.053 260.064 150.72C259.793 150.582 259.688 150.257 259.83 149.993C259.971 149.73 260.306 149.627 260.579 149.766C261.24 150.102 261.897 150.445 262.549 150.796C262.816 150.94 262.914 151.268 262.766 151.529C262.663 151.705 262.474 151.806 262.279 151.806ZM250.207 146.357C250.141 146.357 250.075 146.346 250.01 146.322C244.881 144.424 239.534 142.955 234.117 141.957C233.816 141.901 233.619 141.619 233.676 141.327C233.733 141.034 234.018 140.84 234.324 140.898C239.804 141.908 245.214 143.394 250.404 145.315C250.691 145.421 250.834 145.733 250.725 146.01C250.641 146.225 250.43 146.357 250.207 146.357ZM185.909 145.247C185.678 145.247 185.463 145.106 185.384 144.882C185.285 144.601 185.439 144.294 185.73 144.198C187.483 143.615 189.273 143.077 191.051 142.599C191.343 142.521 191.651 142.687 191.734 142.975C191.816 143.262 191.642 143.56 191.347 143.639C189.59 144.112 187.821 144.643 186.089 145.22C186.03 145.238 185.969 145.247 185.909 145.247ZM194.419 142.848C194.168 142.848 193.941 142.682 193.88 142.435C193.808 142.145 193.992 141.855 194.29 141.785C199.697 140.525 205.259 139.727 210.822 139.412C211.138 139.398 211.391 139.622 211.408 139.918C211.426 140.216 211.192 140.471 210.887 140.488C205.389 140.8 199.893 141.589 194.549 142.833C194.505 142.843 194.462 142.848 194.419 142.848ZM230.942 141.418C230.914 141.418 230.886 141.416 230.857 141.411C229.048 141.141 227.208 140.92 225.387 140.75C225.082 140.722 224.858 140.46 224.888 140.163C224.917 139.867 225.18 139.645 225.492 139.678C227.334 139.848 229.196 140.073 231.026 140.346C231.328 140.392 231.536 140.667 231.49 140.961C231.448 141.228 231.212 141.418 230.942 141.418ZM224.154 140.644C224.139 140.644 224.124 140.643 224.108 140.642C223.374 140.582 222.64 140.533 221.908 140.491C221.602 140.473 221.369 140.218 221.387 139.921C221.405 139.624 221.67 139.395 221.973 139.415C222.714 139.457 223.456 139.507 224.199 139.567C224.504 139.592 224.732 139.851 224.707 140.149C224.682 140.431 224.44 140.644 224.154 140.644Z" fill="#FF4500"/>
</g>
<path d="M130.531 230.868C147.041 224.22 154.88 205.823 148.042 189.776C141.203 173.729 122.276 166.109 105.767 172.756C89.2574 179.403 81.4177 197.8 88.2562 213.847C95.0948 229.894 114.022 237.515 130.531 230.868Z" fill="#FF4500"/>
<path d="M137.573 220.696C148.304 210.265 148.304 193.353 137.573 182.922C126.841 172.491 109.442 172.491 98.7108 182.922C87.9793 193.353 87.9793 210.265 98.7108 220.696C109.442 231.127 126.841 231.127 137.573 220.696Z" fill="#FFD700"/>
<path d="M128.301 207.312L131.184 210.013C128.961 212.578 125.558 213.962 121.563 213.962C115.416 213.962 110.553 210.486 109.061 205.32H105.101V202.957H108.609C108.574 202.586 108.574 202.215 108.574 201.81C108.574 201.405 108.574 201.033 108.609 200.662H105.101V198.299H109.061C110.554 193.133 115.416 189.657 121.563 189.657C125.557 189.657 128.961 191.041 131.184 193.607L128.301 196.273C126.53 194.417 124.342 193.505 121.807 193.505C118.091 193.505 115.139 195.361 113.819 198.298H123.787V200.661H113.16C113.125 201.032 113.09 201.404 113.09 201.809C113.09 202.214 113.125 202.585 113.16 202.957H123.787V205.319H113.819C115.139 208.256 118.091 210.112 121.807 210.112C124.342 210.113 126.531 209.203 128.301 207.312Z" fill="#2FBA2F"/>
<path d="M153.806 213.297C160.336 194.154 149.663 173.489 129.968 167.142C110.273 160.795 89.013 171.169 82.4832 190.313C75.9534 209.457 86.6261 230.121 106.321 236.468C126.017 242.815 147.276 232.441 153.806 213.297Z" stroke="#FF4500" stroke-miterlimit="10" stroke-linecap="round" stroke-linejoin="round" stroke-dasharray="5 3 15 10 2 15"/>
<path d="M301.539 292.138C319.408 292.138 333.894 278.057 333.894 260.688C333.894 243.32 319.408 229.239 301.539 229.239C283.67 229.239 269.184 243.32 269.184 260.688C269.184 278.057 283.67 292.138 301.539 292.138Z" fill="#FF4500"/>
<path d="M320.966 279.576C331.698 269.145 331.698 252.233 320.966 241.802C310.235 231.371 292.836 231.371 282.104 241.802C271.373 252.233 271.373 269.145 282.104 279.576C292.836 290.007 310.235 290.007 320.966 279.576Z" fill="#FFD700"/>
<path d="M303.188 272.774V276.554H300.34V272.807C296.937 272.605 293.637 271.524 291.831 270.006L293.394 266.596C295.096 267.946 297.7 268.925 300.34 269.161V262.41C296.485 261.498 292.352 260.283 292.352 255.59C292.352 252.148 294.922 249.142 300.34 248.636V244.821H303.188V248.568C305.758 248.703 308.363 249.445 310.239 250.627L308.815 254.037C306.975 252.99 305.029 252.417 303.189 252.215V259.033C307.044 259.945 311.247 261.126 311.247 265.819C311.246 269.263 308.641 272.234 303.188 272.774ZM300.34 258.326V252.317C297.874 252.688 296.832 253.903 296.832 255.389C296.832 257.009 298.326 257.751 300.34 258.326ZM306.8 266.124C306.8 264.47 305.272 263.693 303.188 263.119V269.094C305.724 268.723 306.8 267.575 306.8 266.124Z" fill="#2FBA2F"/>
<path d="M303.188 272.774V276.554H300.34V272.807C296.937 272.605 293.637 271.524 291.831 270.006L293.394 266.596C295.096 267.946 297.7 268.925 300.34 269.161V262.41C296.485 261.498 292.352 260.283 292.352 255.59C292.352 252.148 294.922 249.142 300.34 248.636V244.821H303.188V248.568C305.758 248.703 308.363 249.445 310.239 250.627L308.815 254.037C306.975 252.99 305.029 252.417 303.189 252.215V259.033C307.044 259.945 311.247 261.126 311.247 265.819C311.246 269.263 308.641 272.234 303.188 272.774ZM300.34 258.326V252.317C297.874 252.688 296.832 253.903 296.832 255.389C296.832 257.009 298.326 257.751 300.34 258.326ZM306.8 266.124C306.8 264.47 305.272 263.693 303.188 263.119V269.094C305.724 268.723 306.8 267.575 306.8 266.124Z" fill="#2FBA2F"/>
<path d="M334.902 277.469C344.448 259.561 337.252 237.522 318.829 228.242C300.406 218.963 277.732 225.957 268.185 243.865C258.638 261.772 265.834 283.812 284.257 293.091C302.681 302.371 325.355 295.376 334.902 277.469Z" stroke="#FF4500" stroke-miterlimit="10" stroke-linecap="round" stroke-linejoin="round" stroke-dasharray="5 3 15 10 2 15"/>
<path d="M190.206 358.519C208.075 358.519 222.561 344.439 222.561 327.07C222.561 309.701 208.075 295.621 190.206 295.621C172.337 295.621 157.851 309.701 157.851 327.07C157.851 344.439 172.337 358.519 190.206 358.519Z" fill="#FF4500"/>
<path d="M190.206 353.781C205.383 353.781 217.686 341.822 217.686 327.07C217.686 312.318 205.383 300.36 190.206 300.36C175.029 300.36 162.726 312.318 162.726 327.07C162.726 341.822 175.029 353.781 190.206 353.781Z" fill="#FFD700"/>
<path opacity="0.2" d="M209.993 308.533C205.06 303.964 198.381 301.163 191.031 301.163C175.86 301.163 163.552 313.118 163.552 327.873C163.552 335.017 166.44 341.509 171.142 346.304C165.952 341.445 162.725 334.623 162.725 327.068C162.725 312.313 175.032 300.359 190.204 300.359C197.975 300.36 204.994 303.497 209.993 308.533Z" fill="#FFD700"/>
<path opacity="0.2" d="M190.206 295.622C172.336 295.622 157.852 309.701 157.852 327.07C157.852 344.439 172.336 358.518 190.206 358.518C208.076 358.518 222.56 344.44 222.56 327.07C222.56 309.701 208.075 295.622 190.206 295.622ZM190.206 356.805C173.313 356.805 159.623 343.49 159.623 327.07C159.623 310.65 173.313 297.344 190.206 297.344C207.099 297.344 220.788 310.65 220.788 327.07C220.788 343.49 207.098 356.805 190.206 356.805Z" fill="#FFD700"/>
<path d="M193.626 328.353H199.392V330.716H192.48V333.012H199.392V335.375H192.48V338.886H187.965V335.375H181.053V333.012H187.965V330.716H181.053V328.353H186.784L177.372 315.255H182.165L190.326 326.598L198.488 315.255H203.037L193.626 328.353Z" fill="#2FBA2F"/>
<g opacity="0.2">
<path d="M193.626 328.353H199.392V330.716H192.48V333.012H199.392V335.375H192.48V338.886H187.965V335.375H181.053V333.012H187.965V330.716H181.053V328.353H186.784L177.372 315.255H182.165L190.326 326.598L198.488 315.255H203.037L193.626 328.353Z" fill="#2FBA2F"/>
</g>
<path d="M193.764 290.716C214.42 292.626 229.571 310.451 227.606 330.529C225.641 350.606 207.303 365.334 186.647 363.423C165.991 361.513 150.839 343.689 152.805 323.61C154.77 303.533 173.108 288.806 193.764 290.716Z" stroke="#FF4500" stroke-miterlimit="10" stroke-linecap="round" stroke-linejoin="round" stroke-dasharray="5 3 15 10 2 15"/>
<path d="M235.51 164.196C253.379 164.196 267.865 150.116 267.865 132.747C267.865 115.378 253.379 101.298 235.51 101.298C217.641 101.298 203.155 115.378 203.155 132.747C203.155 150.116 217.641 164.196 235.51 164.196Z" fill="#FF4500"/>
<path d="M235.511 159.458C250.688 159.458 262.991 147.499 262.991 132.747C262.991 117.995 250.688 106.036 235.511 106.036C220.334 106.036 208.031 117.995 208.031 132.747C208.031 147.499 220.334 159.458 235.511 159.458Z" fill="#FFD700"/>
<path d="M233.027 141.052H245.565V144.731H224.865V141.052H228.512V134.3H224.865V131.532H228.512V129.979C228.512 124.375 232.436 120.763 239.313 120.763C242.126 120.763 244.314 121.27 246.155 122.35L244.731 125.928C243.168 124.95 241.258 124.611 239.07 124.611C235.111 124.611 233.026 126.468 233.026 129.945V131.531H241.813V134.299H233.026L233.027 141.052Z" fill="#2FBA2F"/>
<path d="M258.894 161.333C275.133 148.779 277.826 125.806 264.909 110.022C251.993 94.2381 228.358 91.6205 212.12 104.175C195.881 116.73 193.188 139.703 206.105 155.487C219.021 171.271 242.656 173.888 258.894 161.333Z" stroke="#FF4500" stroke-miterlimit="10" stroke-linecap="round" stroke-linejoin="round" stroke-dasharray="5 3 15 10 2 15"/>
<path d="M383.705 397.352H392.319C392.609 397.353 392.86 397.55 392.923 397.825L394.321 403.962C394.441 404.511 394.079 405.052 393.514 405.168C393.438 405.183 393.361 405.191 393.284 405.19C390.497 405.146 388.467 404.98 384.968 404.98C382.812 404.98 376.309 405.199 373.332 405.199C370.355 405.199 369.968 402.341 371.185 402.078C376.651 400.92 380.764 399.316 382.514 397.79C382.839 397.5 383.265 397.344 383.705 397.352Z" fill="#263238"/>
<path d="M347.175 397.132H355.789C356.079 397.134 356.33 397.33 356.393 397.605L357.791 403.743C357.911 404.292 357.549 404.831 356.984 404.948C356.908 404.963 356.831 404.971 356.754 404.97C353.967 404.926 351.937 404.76 348.438 404.76C346.282 404.76 339.779 404.979 336.802 404.979C333.825 404.979 333.438 402.121 334.655 401.858C340.121 400.7 344.234 399.096 345.984 397.57C346.308 397.282 346.735 397.124 347.175 397.132Z" fill="#263238"/>
<path d="M388.218 242.028H350.583C347.004 261.021 335.804 338.145 343.84 398.03H356.581C356.581 398.03 355.402 307.081 366.651 277.691C367.945 293.42 381.098 397.969 381.098 397.969H394.069C394.069 397.969 392.132 358.64 390.191 321.49C388.966 298.097 388.269 246.831 388.218 242.028Z" fill="#FF4500"/>
<path d="M366.762 190.726C366.762 190.726 373.094 188.579 380.739 190.245L381.593 195.948L363.197 196.331L366.762 190.726Z" fill="#263238"/>
<path d="M332.864 189.146C333.344 188.102 332.864 185.334 332.864 185.334C332.864 185.334 324.861 181.255 323.58 180.26C322.299 179.266 320.859 183.761 321.659 184.703C322.459 185.645 324.86 189.146 328.862 189.146L329.982 192.179L332.864 189.146Z" fill="#E4897B"/>
<path d="M354.319 192.179C351.297 192.884 342.792 204.477 339.825 204.16C336.858 203.843 333.298 188.82 333.298 188.82L328.946 190.087C328.946 190.087 331.122 208.98 336.66 211.518C342.198 214.056 355.509 203.319 355.509 203.319L354.319 192.179Z" fill="#263238"/>
<path d="M354.319 192.179C351.297 192.884 342.792 204.477 339.825 204.16C336.858 203.843 333.298 188.82 333.298 188.82L328.946 190.087C328.946 190.087 331.122 208.98 336.66 211.518C342.198 214.056 355.509 203.319 355.509 203.319L354.319 192.179Z" fill="white"/>
<path opacity="0.2" d="M354.538 204.068C353.038 205.206 349.978 207.422 346.688 209.21C347.838 203.038 353.478 200.365 353.478 200.365L354.538 204.068Z" fill="black"/>
<path opacity="0.2" d="M366.703 277.811C365.043 282.142 363.663 287.552 362.5 293.636C361.448 279.64 365.657 264.794 365.657 264.794L366.703 277.811Z" fill="black"/>
<path d="M376.029 242.584V246.824L388.206 246.968V242.584H376.029Z" fill="black"/>
<path d="M356.862 246.597L374.676 246.807V242.584H356.862V246.597Z" fill="black"/>
<path d="M355.509 242.584H350.322L349.84 246.515L355.509 246.581V242.584Z" fill="black"/>
<path d="M367.59 241.817H360.583V246.725H367.59V241.817Z" fill="white"/>
<path d="M349.729 229.355C349.729 229.948 349.739 230.521 349.749 231.085C349.759 232.31 349.789 233.457 349.819 234.516C349.879 235.984 349.939 237.287 349.999 238.395C350.159 241.048 350.329 242.574 350.329 242.574H388.209C388.359 241.184 388.519 239.785 388.669 238.395C388.819 237.102 388.959 235.799 389.099 234.516C389.229 233.369 389.359 232.222 389.489 231.085C389.559 230.512 389.619 229.929 389.689 229.355C389.869 227.742 390.059 226.138 390.239 224.553C390.279 224.233 390.309 223.912 390.349 223.591C390.599 221.394 390.849 219.227 391.099 217.108C391.199 216.233 391.309 215.378 391.409 214.522C391.799 211.227 392.169 208.078 392.529 205.113C392.759 203.208 392.979 201.381 393.189 199.651C393.519 196.9 393.819 194.392 394.089 192.176H354.319C351.199 203.033 350.089 214.406 349.809 223.591C349.799 223.922 349.789 224.242 349.779 224.553C349.739 226.235 349.719 227.839 349.729 229.355Z" fill="#232323"/>
<path d="M380.29 194.644C376.907 197.375 368.988 195.969 368.988 195.969C368.988 195.969 365.974 194.024 367.088 192.558C370.039 192.214 369.619 191.354 370.283 189.679C370.668 188.703 370.77 187.591 370.729 186.44C370.714 185.836 370.649 185.221 370.566 184.614L380.739 177.951C379.234 182.576 377.261 191.115 380.29 194.644Z" fill="#E4897B"/>
<path opacity="0.2" d="M378.258 182.36C377.605 188.087 372.675 189.461 370.283 189.681C370.668 188.705 370.77 187.593 370.729 186.442L378.258 182.36Z" fill="black"/>
<path d="M368.203 161.204C368.203 161.204 364.037 169.617 367.785 174.449C371.532 179.28 376.718 162.853 376.718 162.853L368.203 161.204Z" fill="#263238"/>
<path d="M379.561 185.635C376.192 188.203 372.109 187.922 369.12 185.916C367.197 184.63 365.73 182.624 365.191 180.208C365.117 179.892 365.064 179.564 365.023 179.231C364.353 173.131 366.577 163.473 373.559 161.687C378.529 160.38 383.66 163.238 385.003 168.077C385.395 169.451 385.433 170.897 385.138 172.298C383.867 178.817 383.437 182.708 379.561 185.635Z" fill="#E4897B"/>
<path d="M374.618 172.846C374.586 173.381 374.202 173.778 373.836 173.731C373.47 173.685 373.244 173.211 373.311 172.677C373.378 172.143 373.736 171.746 374.093 171.791C374.45 171.838 374.686 172.304 374.618 172.846Z" fill="#263238"/>
<path d="M368.386 172.062C368.354 172.598 367.961 172.994 367.604 172.948C367.247 172.902 367.012 172.428 367.079 171.893C367.146 171.36 367.504 170.962 367.861 171.008C368.219 171.055 368.452 171.554 368.386 172.062Z" fill="#263238"/>
<path d="M370.331 172.575C369.457 174.131 368.366 175.562 367.088 176.828C367.784 177.457 368.73 177.755 369.673 177.642L370.331 172.575Z" fill="#DE5753"/>
<path d="M366.44 169.289C366.543 169.353 366.673 169.358 366.781 169.303C367.5 168.9 368.372 168.85 369.134 169.169C369.292 169.251 369.488 169.195 369.574 169.041C369.659 168.888 369.6 168.697 369.443 168.614L369.442 168.613C368.489 168.186 367.382 168.236 366.473 168.745C366.313 168.824 366.249 169.014 366.331 169.169C366.332 169.171 366.333 169.174 366.335 169.176C366.363 169.219 366.399 169.257 366.44 169.289Z" fill="#263238"/>
<path d="M376.164 170.592C376.23 170.599 376.295 170.585 376.353 170.554C376.489 170.44 376.504 170.241 376.388 170.11C376.386 170.108 376.385 170.106 376.383 170.105C375.703 169.323 374.674 168.913 373.626 169.005C373.449 169.03 373.327 169.19 373.353 169.363C373.384 169.533 373.546 169.651 373.723 169.63C374.553 169.581 375.357 169.916 375.893 170.534C375.97 170.591 376.069 170.612 376.164 170.592Z" fill="#263238"/>
<path d="M381.262 163.464L380.45 164.601C382.541 165.691 381.643 168.119 380.988 169.176C379.588 171.432 380.313 175.432 381.951 177.262C381.951 177.262 382.203 176.223 383.068 176.629C383.933 177.035 382.681 182.455 380.427 184.754C380.427 184.754 383.546 182.861 386.114 177.389C388.489 172.328 389.474 167.937 388.728 165.691L381.262 163.464Z" fill="#263238"/>
<path d="M387.377 178.064C386.428 179.458 384.949 180.429 383.264 180.766C381.03 181.195 380.088 179.21 380.85 177.246C381.544 175.507 383.541 173.127 385.715 173.604C387.889 174.081 388.519 176.338 387.377 178.064Z" fill="#E4897B"/>
<path d="M369.667 179.739C370.243 180.627 370.926 182.34 370.926 182.34C371.097 182.308 371.268 182.276 371.437 182.235C373.743 181.743 374.646 180.773 374.947 179.848C375.109 179.342 375.086 178.843 375.013 178.449C374.934 177.991 374.77 177.683 374.77 177.683C373.708 178.654 371.594 179.275 370.451 179.561C369.973 179.683 369.667 179.739 369.667 179.739Z" fill="#263238"/>
<path d="M370.451 179.559L370.843 180.316C373.014 179.846 374.478 179.232 375.013 178.447C374.934 177.989 374.77 177.681 374.77 177.681C373.707 178.653 371.594 179.274 370.451 179.559Z" fill="white"/>
<path d="M371.437 182.234C373.743 181.742 374.646 180.772 374.947 179.847C374.168 180.045 373.251 180.367 372.498 180.888C371.92 181.284 371.611 181.771 371.437 182.234Z" fill="#DE5753"/>
<path d="M388.971 169.795C388.971 169.795 392.376 164.628 386.046 159.116C379.716 153.604 371.379 155.912 369.614 158.219C369.614 158.219 364.562 159.299 367.068 164.171L370.396 161.629C370.396 161.629 375.676 169.963 388.971 169.795Z" fill="#263238"/>
<path d="M366.221 191.321C366.221 191.321 354.626 210.096 353.44 244.776H347.704C347.704 244.776 349.463 202.184 354.32 192.177L366.221 191.321Z" fill="#263238"/>
<path d="M366.221 191.321C366.221 191.321 354.626 210.096 353.44 244.776H347.704C347.704 244.776 349.463 202.184 354.32 192.177L366.221 191.321Z" fill="white"/>
<path d="M380.245 191.321C380.245 191.321 376.831 239.176 390.603 250.52L394.865 246.725C394.865 246.725 390.51 219.085 393.189 207.742C395.869 196.398 394.865 192.18 394.865 192.18L380.245 191.321Z" fill="#263238"/>
<path d="M392.79 228.692C393.52 238.208 394.86 246.723 394.86 246.723L390.6 250.523C388.74 248.988 387.19 246.781 385.91 244.118C377.69 227.098 380.24 191.319 380.24 191.319L394.86 192.174C394.86 192.174 395.63 195.391 394.04 203.78C393.81 204.985 393.53 206.307 393.19 207.746C392.68 209.923 392.42 212.693 392.35 215.755C392.24 219.798 392.45 224.347 392.79 228.682C392.78 228.682 392.78 228.682 392.79 228.692Z" fill="white"/>
<path d="M380.739 190.245L389.044 197.359L381.527 201.716L386.274 202.87L380.738 221.627C380.738 221.627 376.984 197.166 380.739 190.245Z" fill="#263238"/>
<path d="M366.762 190.726L356.186 197.23L360.583 201.752L356.83 203.004L356.368 219.615C356.368 219.615 361.526 199.355 366.762 190.726Z" fill="#263238"/>
<path opacity="0.2" d="M394.04 203.78C393.81 204.985 393.53 206.307 393.19 207.746C392.68 209.923 392.42 212.693 392.35 215.755C388.48 209.748 390.04 201.855 390.04 201.855C390.04 201.855 391.64 202.584 394.04 203.78Z" fill="black"/>
<path opacity="0.2" d="M394.86 246.723L390.6 250.523C388.74 248.988 387.19 246.781 385.91 244.118C389.24 239.637 391.71 232.279 392.79 228.692C393.52 238.208 394.86 246.723 394.86 246.723Z" fill="black"/>
<path d="M380.739 190.245L389.044 197.359L381.527 201.716L386.274 202.87L380.738 221.627C380.738 221.627 376.984 197.166 380.739 190.245Z" fill="#D86237"/>
<path d="M366.762 190.726L356.186 197.23L360.583 201.752L356.83 203.004L356.368 219.615C356.368 219.615 361.526 199.355 366.762 190.726Z" fill="#D86237"/>
<path d="M394.088 192.181C397.584 191.48 407.474 222.434 405.101 228.972C402.727 235.509 388.398 251.084 388.398 251.084L384.264 246.921C384.264 246.921 396.2 231.355 397.783 226.222C399.365 221.089 390.603 204.789 390.603 204.789C390.603 204.789 389.505 200.627 389.886 197.015C390.266 193.404 394.088 192.181 394.088 192.181Z" fill="#263238"/>
<path d="M394.088 192.181C397.584 191.48 407.474 222.434 405.101 228.972C402.727 235.509 388.398 251.084 388.398 251.084L384.264 246.921C384.264 246.921 396.2 231.355 397.783 226.222C399.365 221.089 390.603 204.789 390.603 204.789C390.603 204.789 389.505 200.627 389.886 197.015C390.266 193.404 394.088 192.181 394.088 192.181Z" fill="white"/>
</svg>
